<?xml version="1.0" encoding="utf-8" ?>
<svg baseProfile="tiny" height="100%" version="1.2" width="100%" xmlns="http://www.w3.org/2000/svg" xmlns:ev="http://www.w3.org/2001/xml-events" xmlns:xlink="http://www.w3.org/1999/xlink"><defs /><polyline fill="none" points="86.0,6.9969 85.0,6.9969 84.0031,6.0 84.0,5.9969 83.0031,5.0 83.0031,4.0 84.0,3.0031 85.0,3.0031 86.0,3.0031 87.0,3.0031 87.9969,4.0 87.9969,5.0 87.0,5.9969 86.9969,6.0 86.0,6.9969" stroke="black" stroke-width="1" /><polyline fill="none" points="124.0,8.9969 123.0031,8.0 123.0,7.9969 122.0031,7.0 122.0031,6.0 123.0,5.0031 123.0031,5.0 124.0,4.0031 124.9969,5.0 125.0,5.0031 125.9969,6.0 125.9969,7.0 125.0,7.9969 124.9969,8.0 124.0,8.9969" stroke="black" stroke-width="1" /><polyline fill="none" points="77.0,21.9969 76.0,21.9969 75.0031,21.0 75.0031,20.0 75.0031,19.0 75.0,18.9969 74.0031,18.0 74.0031,17.0 74.0031,16.0 74.0031,15.0 74.0031,14.0 74.0031,13.0 74.0031,12.0 74.0,11.9969 73.0,11.9969 72.0,11.9969 71.0031,11.0 72.0,10.0031 72.0031,10.0 73.0,9.0031 74.0,9.0031 74.0031,9.0 75.0,8.0031 75.0031,8.0 75.0031,7.0 75.0031,6.0 76.0,5.0031 77.0,5.0031 77.9969,6.0 77.9969,7.0 77.9969,8.0 78.0,8.0031 79.0,8.0031 80.0,8.0031 81.0,8.0031 81.9969,9.0 81.9969,10.0 81.9969,11.0 81.0,11.9969 80.0,11.9969 79.0,11.9969 78.0,11.9969 77.9969,12.0 77.9969,13.0 77.9969,14.0 77.9969,15.0 77.9969,16.0 77.9969,17.0 77.9969,18.0 77.9969,19.0 77.9969,20.0 77.9969,21.0 77.0,21.9969" stroke="black" stroke-width="1" /><polyline fill="none" points="93.0,20.9969 92.0,20.9969 91.0,20.9969 90.0031,20.0 90.0031,19.0 90.0031,18.0 90.0031,17.0 90.0031,16.0 90.0031,15.0 90.0031,14.0 90.0031,13.0 90.0031,12.0 90.0,11.9969 89.0,11.9969 88.0,11.9969 87.0031,11.0 87.0031,10.0 88.0,9.0031 89.0,9.0031 89.0031,9.0 90.0,8.0031 91.0,8.0031 91.0031,8.0 91.0031,7.0 91.0031,6.0 92.0,5.0031 93.0,5.0031 93.9969,6.0 93.9969,7.0 93.9969,8.0 94.0,8.0031 95.0,8.0031 96.0,8.0031 97.0,8.0031 97.9969,9.0 97.9969,10.0 97.0,10.9969 96.0,10.9969 95.0,10.9969 94.0,10.9969 93.9969,11.0 93.9969,12.0 93.9969,13.0 93.9969,14.0 93.9969,15.0 93.9969,16.0 93.9969,17.0 93.9969,18.0 93.9969,19.0 93.9969,20.0 93.0,20.9969" stroke="black" stroke-width="1" /><polyline fill="none" points="112.0,20.9969 111.0031,20.0 111.0,19.9969 110.0031,19.0 110.0,18.9969 109.0031,18.0 109.0031,17.0 109.0031,16.0 109.0,15.9969 108.0031,15.0 108.0031,14.0 108.0031,13.0 108.0031,12.0 108.0031,11.0 108.0,10.9969 107.0031,10.0 107.0031,9.0 107.0031,8.0 107.0,7.9969 106.0031,7.0 106.0031,6.0 107.0,5.0031 108.0,5.0031 109.0,5.0031 109.9969,6.0 109.9969,7.0 109.9969,8.0 110.0,8.0031 110.9969,9.0 110.9969,10.0 110.9969,11.0 110.9969,12.0 111.0,12.0031 111.9969,13.0 111.9969,14.0 111.9969,15.0 111.9969,16.0 112.0,16.0031 113.0,16.0031 113.0031,16.0 114.0,15.0031 114.0031,15.0 114.0031,14.0 115.0,13.0031 115.0031,13.0 115.0031,12.0 115.0031,11.0 116.0,10.0031 116.0031,10.0 116.0031,9.0 117.0,8.0031 117.0031,8.0 117.0031,7.0 118.0,6.0031 118.0031,6.0 119.0,5.0031 119.9969,6.0 119.9969,7.0 119.9969,8.0 119.9969,9.0 119.0,9.9969 118.9969,10.0 118.9969,11.0 118.9969,12.0 118.0,12.9969 117.9969,13.0 117.9969,14.0 117.0,14.9969 116.9969,15.0 116.9969,16.0 116.0,16.9969 115.9969,17.0 115.0,17.9969 114.9969,18.0 114.0,18.9969 113.9969,19.0 113.0,19.9969 112.9969,20.0 112.0,20.9969" stroke="black" stroke-width="1" /><polyline fill="none" points="128.0,22.9969 127.0,22.9969 126.0031,22.0 126.0031,21.0 126.0031,20.0 126.0031,19.0 126.0031,18.0 126.0031,17.0 126.0031,16.0 126.0031,15.0 126.0031,14.0 126.0031,13.0 127.0,12.0031 127.0031,12.0 127.0031,11.0 127.0031,10.0 127.0031,9.0 128.0,8.0031 128.0031,8.0 128.0031,7.0 128.0031,6.0 129.0,5.0031 130.0,5.0031 130.9969,6.0 130.9969,7.0 130.9969,8.0 130.9969,9.0 130.0,9.9969 129.9969,10.0 129.9969,11.0 129.9969,12.0 129.9969,13.0 129.9969,14.0 129.9969,15.0 129.9969,16.0 129.0,16.9969 128.9969,17.0 128.9969,18.0 128.9969,19.0 128.9969,20.0 128.9969,21.0 128.9969,22.0 128.0,22.9969" stroke="black" stroke-width="1" /><polyline fill="none" points="133.0,23.9969 132.0,23.9969 131.0031,23.0 131.0031,22.0 131.0031,21.0 131.0031,20.0 131.0031,19.0 131.0031,18.0 131.0031,17.0 131.0031,16.0 132.0,15.0031 132.0031,15.0 132.0031,14.0 132.0031,13.0 132.0031,12.0 133.0,11.0031 133.0031,11.0 133.0031,10.0 133.0031,9.0 133.0031,8.0 134.0,7.0031 134.0031,7.0 135.0,6.0031 135.0031,6.0 136.0,5.0031 136.9969,6.0 136.9969,7.0 136.9969,8.0 136.9969,9.0 136.0,9.9969 135.9969,10.0 135.9969,11.0 135.9969,12.0 135.9969,13.0 135.9969,14.0 135.0,14.9969 134.9969,15.0 134.9969,16.0 134.9969,17.0 134.9969,18.0 134.9969,19.0 134.0,19.9969 133.9969,20.0 133.9969,21.0 133.9969,22.0 133.9969,23.0 133.0,23.9969" stroke="black" stroke-width="1" /><polyline fill="none" points="51.0,23.9969 50.0031,23.0 50.0,22.9969 49.0031,22.0 49.0031,21.0 49.0031,20.0 49.0,19.9969 48.0031,19.0 48.0031,18.0 48.0031,17.0 48.0031,16.0 48.0031,15.0 48.0031,14.0 48.0031,13.0 48.0031,12.0 48.0,11.9969 47.0031,11.0 47.0,10.9969 46.0031,10.0 46.0031,9.0 47.0,8.0031 48.0,8.0031 48.0031,8.0 49.0,7.0031 50.0,7.0031 51.0,7.0031 52.0,7.0031 52.0031,7.0 53.0,6.0031 54.0,6.0031 55.0,6.0031 55.9969,7.0 56.0,7.0031 57.0,7.0031 58.0,7.0031 58.9969,8.0 58.9969,9.0 59.0,9.0031 59.9969,10.0 59.9969,11.0 59.9969,12.0 59.9969,13.0 59.0,13.9969 58.9969,14.0 58.0,14.9969 57.9969,15.0 57.0,15.9969 56.9969,16.0 56.0,16.9969 55.0,16.9969 54.9969,17.0 54.0,17.9969 53.0,17.9969 52.0,17.9969 51.9969,18.0 51.9969,19.0 51.9969,20.0 52.0,20.0031 52.9969,21.0 52.9969,22.0 52.0,22.9969 51.9969,23.0 51.0,23.9969" stroke="black" stroke-width="1" /><polyline fill="none" points="52.0031,15.0 53.0,14.0031 54.0,14.0031 55.0,14.0031 55.0031,14.0 56.0,13.0031 56.0031,13.0 56.0031,12.0 56.0031,11.0 56.0031,10.0 56.0,9.9969 55.0,9.9969 54.0,9.9969 53.0,9.9969 52.0,9.9969 51.9969,10.0 51.0,10.9969 50.9969,11.0 50.9969,12.0 50.9969,13.0 50.9969,14.0 51.0,14.0031 51.9969,15.0 52.0,15.0031 52.0031,15.0" stroke="black" stroke-width="1" /><polyline fill="none" points="70.0,21.9969 69.0,21.9969 68.0,21.9969 67.0,21.9969 66.0,21.9969 65.0,21.9969 64.0,21.9969 63.0031,21.0 63.0,20.9969 62.0031,20.0 62.0,19.9969 61.0031,19.0 61.0031,18.0 61.0,17.9969 60.0031,17.0 60.0031,16.0 61.0,15.0031 61.0031,15.0 61.0031,14.0 61.0031,13.0 62.0,12.0031 62.0031,12.0 63.0,11.0031 63.0031,11.0 64.0,10.0031 64.0031,10.0 65.0,9.0031 66.0,9.0031 67.0,9.0031 68.0,9.0031 69.0,9.0031 69.9969,10.0 70.0,10.0031 70.9969,11.0 71.0,11.0031 71.9969,12.0 71.9969,13.0 71.0,13.9969 70.9969,14.0 70.9969,15.0 70.0,15.9969 69.9969,16.0 69.0,16.9969 68.9969,17.0 68.0,17.9969 67.0,17.9969 66.9969,18.0 66.0,18.9969 65.0,18.9969 64.0031,18.0 64.0,17.9969 63.9969,18.0 64.0,18.0031 64.9969,19.0 65.0,19.0031 66.0,19.0031 67.0,19.0031 68.0,19.0031 69.0,19.0031 70.0,19.0031 70.9969,20.0 70.9969,21.0 70.0,21.9969" stroke="black" stroke-width="1" /><polyline fill="none" points="85.0,20.9969 84.0,20.9969 83.0031,20.0 83.0031,19.0 83.0031,18.0 83.0031,17.0 83.0031,16.0 83.0031,15.0 83.0031,14.0 83.0031,13.0 83.0031,12.0 83.0031,11.0 84.0,10.0031 84.0031,10.0 85.0,9.0031 86.0,9.0031 86.9969,10.0 86.9969,11.0 86.9969,12.0 86.9969,13.0 86.9969,14.0 86.9969,15.0 86.9969,16.0 86.9969,17.0 86.9969,18.0 86.9969,19.0 86.0,19.9969 85.9969,20.0 85.0,20.9969" stroke="black" stroke-width="1" /><polyline fill="none" points="67.0031,15.0 68.0,14.0031 68.0031,14.0 68.0031,13.0 68.0031,12.0 68.0,11.9969 67.0,11.9969 66.0,11.9969 65.9969,12.0 65.0,12.9969 64.9969,13.0 64.0,13.9969 63.9969,14.0 63.9969,15.0 64.0,15.0031 65.0,15.0031 66.0,15.0031 67.0,15.0031 67.0031,15.0" stroke="black" stroke-width="1" /><polyline fill="none" points="122.0,21.9969 121.0,21.9969 120.0031,21.0 120.0031,20.0 120.0031,19.0 120.0031,18.0 120.0031,17.0 120.0031,16.0 121.0,15.0031 121.0031,15.0 121.0031,14.0 121.0031,13.0 122.0,12.0031 122.0031,12.0 123.0,11.0031 124.0,11.0031 124.9969,12.0 124.9969,13.0 124.0,13.9969 123.9969,14.0 123.9969,15.0 123.9969,16.0 123.9969,17.0 123.9969,18.0 123.9969,19.0 123.9969,20.0 123.0,20.9969 122.9969,21.0 122.0,21.9969" stroke="black" stroke-width="1" /><polyline fill="none" points="154.0,33.9969 153.0,33.9969 152.0,33.9969 151.0031,33.0 151.0,32.9969 150.0,32.9969 149.0031,32.0 149.0,31.9969 148.0031,31.0 148.0031,30.0 149.0,29.0031 150.0,29.0031 150.9969,30.0 151.0,30.0031 152.0,30.0031 153.0,30.0031 154.0,30.0031 154.0031,30.0 155.0,29.0031 155.0031,29.0 155.0031,28.0 156.0,27.0031 156.0031,27.0 156.0031,26.0 156.0031,25.0 156.0,24.9969 155.9969,25.0 155.0,25.9969 154.0,25.9969 153.9969,26.0 153.0,26.9969 152.0,26.9969 151.0,26.9969 150.0,26.9969 149.0031,26.0 149.0,25.9969 148.0031,25.0 148.0031,24.0 148.0,23.9969 147.0,23.9969 146.9969,24.0 146.9969,25.0 146.0,25.9969 145.0,25.9969 144.0031,25.0 144.0031,24.0 144.0,23.9969 143.0,23.9969 142.9969,24.0 142.0,24.9969 141.0,24.9969 140.0,24.9969 139.0,24.9969 138.0,24.9969 137.0031,24.0 137.0,23.9969 136.0031,23.0 136.0031,22.0 136.0,21.9969 135.0031,21.0 135.0031,20.0 135.0031,19.0 136.0,18.0031 136.0031,18.0 136.0031,17.0 137.0,16.0031 137.0031,16.0 138.0,15.0031 138.0031,15.0 139.0,14.0031 139.0031,14.0 140.0,13.0031 141.0,13.0031 141.0031,13.0 142.0,12.0031 143.0,12.0031 144.0,12.0031 144.9969,13.0 145.0,13.0031 146.0,13.0031 146.0031,13.0 147.0,12.0031 147.9969,13.0 148.0,13.0031 148.9969,14.0 148.9969,15.0 148.0,15.9969 147.9969,16.0 147.9969,17.0 147.9969,18.0 147.9969,19.0 147.9969,20.0 147.9969,21.0 147.9969,22.0 148.0,22.0031 148.0031,22.0 148.0031,21.0 149.0,20.0031 149.0031,20.0 149.0031,19.0 150.0,18.0031 150.0031,18.0 151.0,17.0031 151.0031,17.0 152.0,16.0031 153.0,16.0031 153.0031,16.0 154.0,15.0031 155.0,15.0031 156.0,15.0031 157.0,15.0031 158.0,15.0031 158.9969,16.0 159.0,16.0031 159.9969,17.0 159.9969,18.0 159.0,18.9969 158.0,18.9969 157.0031,18.0 157.0,17.9969 156.0,17.9969 155.0,17.9969 154.9969,18.0 154.0,18.9969 153.0,18.9969 152.9969,19.0 152.0,19.9969 151.9969,20.0 151.9969,21.0 151.0,21.9969 150.9969,22.0 150.9969,23.0 150.9969,24.0 151.0,24.0031 152.0,24.0031 152.0031,24.0 153.0,23.0031 154.0,23.0031 154.0031,23.0 155.0,22.0031 155.0031,22.0 156.0,21.0031 156.0031,21.0 157.0,20.0031 157.0031,20.0 158.0,19.0031 159.0,19.0031 159.9969,20.0 159.9969,21.0 159.9969,22.0 159.9969,23.0 159.9969,24.0 159.0,24.9969 158.9969,25.0 158.9969,26.0 158.9969,27.0 158.9969,28.0 158.0,28.9969 157.9969,29.0 157.9969,30.0 157.0,30.9969 156.9969,31.0 156.0,31.9969 155.9969,32.0 155.0,32.9969 154.9969,33.0 154.0,33.9969" stroke="black" stroke-width="1" /><polyline fill="none" points="15.0,30.9969 14.0031,30.0 14.0,29.9969 13.0031,29.0 13.0031,28.0 13.0031,27.0 13.0,26.9969 12.0,26.9969 11.0031,26.0 11.0031,25.0 12.0,24.0031 13.0,24.0031 13.0031,24.0 14.0,23.0031 14.0031,23.0 14.0031,22.0 14.0031,21.0 14.0031,20.0 14.0031,19.0 14.0031,18.0 15.0,17.0031 15.0031,17.0 15.0031,16.0 15.0031,15.0 16.0,14.0031 17.0,14.0031 18.0,14.0031 19.0,14.0031 19.9969,15.0 19.9969,16.0 20.0,16.0031 20.9969,17.0 21.0,17.0031 21.9969,18.0 22.0,18.0031 22.9969,19.0 22.9969,20.0 23.0,20.0031 23.9969,21.0 24.0,21.0031 24.9969,22.0 24.9969,23.0 24.9969,24.0 25.0,24.0031 25.9969,25.0 25.9969,26.0 25.9969,27.0 25.0,27.9969 24.0031,27.0 24.0,26.9969 23.0031,26.0 23.0,25.9969 22.0031,25.0 22.0,24.9969 21.0,24.9969 20.0,24.9969 19.0,24.9969 18.0,24.9969 17.9969,25.0 17.0,25.9969 16.9969,26.0 16.9969,27.0 16.9969,28.0 16.9969,29.0 16.0,29.9969 15.9969,30.0 15.0,30.9969" stroke="black" stroke-width="1" /><polyline fill="none" points="31.0,26.9969 30.0,26.9969 29.0,26.9969 28.0031,26.0 28.0,25.9969 27.0031,25.0 27.0,24.9969 26.0031,24.0 26.0031,23.0 26.0031,22.0 26.0,21.9969 25.0031,21.0 25.0031,20.0 25.0031,19.0 25.0031,18.0 26.0,17.0031 26.0031,17.0 26.0031,16.0 27.0,15.0031 27.9969,16.0 28.0,16.0031 28.9969,17.0 28.9969,18.0 28.9969,19.0 28.9969,20.0 28.9969,21.0 28.9969,22.0 28.9969,23.0 29.0,23.0031 29.9969,24.0 30.0,24.0031 30.0031,24.0 31.0,23.0031 31.0031,23.0 31.0031,22.0 32.0,21.0031 32.0031,21.0 32.0031,20.0 33.0,19.0031 33.0031,19.0 33.0031,18.0 33.0031,17.0 34.0,16.0031 34.0031,16.0 34.0031,15.0 35.0,14.0031 36.0,14.0031 36.9969,15.0 36.9969,16.0 36.9969,17.0 36.9969,18.0 37.0,18.0031 37.9969,19.0 37.9969,20.0 37.9969,21.0 38.0,21.0031 38.9969,22.0 39.0,22.0031 39.9969,23.0 39.0,23.9969 38.9969,24.0 38.0,24.9969 37.0031,24.0 37.0,23.9969 36.0031,23.0 36.0,22.9969 35.0031,22.0 35.0031,21.0 35.0,20.9969 34.9969,21.0 34.9969,22.0 34.0,22.9969 33.9969,23.0 33.9969,24.0 33.0,24.9969 32.9969,25.0 32.0,25.9969 31.9969,26.0 31.0,26.9969" stroke="black" stroke-width="1" /><polyline fill="none" points="141.0031,22.0 142.0,21.0031 142.0031,21.0 143.0,20.0031 143.0031,20.0 144.0,19.0031 144.0031,19.0 144.0031,18.0 144.0031,17.0 144.0031,16.0 144.0,15.9969 143.0,15.9969 142.0,15.9969 141.0,15.9969 140.9969,16.0 140.0,16.9969 139.9969,17.0 139.0,17.9969 138.9969,18.0 138.9969,19.0 138.9969,20.0 138.9969,21.0 138.9969,22.0 139.0,22.0031 140.0,22.0031 141.0,22.0031 141.0031,22.0" stroke="black" stroke-width="1" /><polyline fill="none" points="19.0031,22.0 20.0,21.0031 20.0031,21.0 20.0,20.9969 19.0031,20.0 19.0031,19.0 19.0,18.9969 18.0031,18.0 18.0,17.9969 17.9969,18.0 17.9969,19.0 17.0,19.9969 16.9969,20.0 16.9969,21.0 16.9969,22.0 17.0,22.0031 18.0,22.0031 19.0,22.0031 19.0031,22.0" stroke="black" stroke-width="1" /><polyline fill="none" points="168.0,30.9969 167.0,30.9969 166.0,30.9969 165.0,30.9969 164.0,30.9969 163.0031,30.0 163.0,29.9969 162.0031,29.0 162.0,28.9969 161.0031,28.0 161.0,27.9969 160.0031,27.0 160.0031,26.0 160.0031,25.0 160.0031,24.0 160.0031,23.0 161.0,22.0031 161.0031,22.0 161.0031,21.0 162.0,20.0031 162.0031,20.0 163.0,19.0031 163.0031,19.0 164.0,18.0031 165.0,18.0031 166.0,18.0031 166.0031,18.0 167.0,17.0031 167.9969,18.0 168.0,18.0031 169.0,18.0031 170.0,18.0031 170.9969,19.0 171.0,19.0031 171.9969,20.0 171.9969,21.0 171.9969,22.0 171.9969,23.0 171.0,23.9969 170.9969,24.0 170.9969,25.0 170.0,25.9969 169.0,25.9969 168.9969,26.0 168.0,26.9969 167.0,26.9969 166.0,26.9969 165.0,26.9969 164.0,26.9969 163.0031,26.0 163.0,25.9969 162.9969,26.0 163.0,26.0031 163.9969,27.0 164.0,27.0031 164.9969,28.0 165.0,28.0031 166.0,28.0031 167.0,28.0031 167.9969,29.0 168.0,29.0031 168.9969,30.0 168.0,30.9969" stroke="black" stroke-width="1" /><polyline fill="none" points="167.0031,24.0 168.0,23.0031 168.0031,23.0 169.0,22.0031 169.0031,22.0 169.0,21.9969 168.0031,21.0 168.0,20.9969 167.0,20.9969 166.0,20.9969 165.0,20.9969 164.9969,21.0 164.0,21.9969 163.9969,22.0 163.9969,23.0 164.0,23.0031 165.0,23.0031 165.9969,24.0 166.0,24.0031 167.0,24.0031 167.0031,24.0" stroke="black" stroke-width="1" /><polyline fill="none" points="82.0,155.9969 81.0,155.9969 80.0,155.9969 79.0,155.9969 78.0,155.9969 77.0,155.9969 76.0,155.9969 75.0,155.9969 74.0,155.9969 73.0,155.9969 72.0,155.9969 71.0,155.9969 70.0,155.9969 69.0,155.9969 68.0,155.9969 67.0,155.9969 66.0,155.9969 65.0,155.9969 64.0,155.9969 63.0,155.9969 62.0,155.9969 61.0,155.9969 60.0,155.9969 59.0,155.9969 58.0,155.9969 57.0,155.9969 56.0031,155.0 57.0,154.0031 57.0031,154.0 57.0031,153.0 57.0031,152.0 57.0031,151.0 57.0031,150.0 57.0031,149.0 57.0031,148.0 58.0,147.0031 58.0031,147.0 58.0031,146.0 58.0031,145.0 59.0,144.0031 59.0031,144.0 59.0031,143.0 59.0,142.9969 58.9969,143.0 58.0,143.9969 57.0,143.9969 56.0,143.9969 55.0,143.9969 54.0,143.9969 53.0031,143.0 53.0,142.9969 52.0031,142.0 52.0,141.9969 51.0031,141.0 51.0,140.9969 50.0031,140.0 50.0,139.9969 49.0,139.9969 48.0,139.9969 47.0,139.9969 46.0031,139.0 46.0,138.9969 45.0031,138.0 45.0031,137.0 45.0,136.9969 44.0031,136.0 44.0,135.9969 43.0,135.9969 42.0,135.9969 41.0031,135.0 41.0,134.9969 40.0031,134.0 40.0,133.9969 39.0031,133.0 39.0031,132.0 39.0031,131.0 39.0031,130.0 39.0,129.9969 38.0,129.9969 37.0,129.9969 36.0031,129.0 36.0,128.9969 35.0,128.9969 34.0031,128.0 34.0031,127.0 34.0031,126.0 34.0031,125.0 34.0031,124.0 34.0031,123.0 34.0,122.9969 33.0,122.9969 32.0031,122.0 32.0,121.9969 31.0031,121.0 31.0,120.9969 30.0031,120.0 30.0,119.9969 29.0031,119.0 29.0031,118.0 29.0031,117.0 29.0031,116.0 29.0031,115.0 29.0,114.9969 28.0031,114.0 28.0,113.9969 27.0031,113.0 27.0031,112.0 27.0031,111.0 27.0031,110.0 27.0031,109.0 27.0031,108.0 28.0,107.0031 28.0031,107.0 28.0031,106.0 28.0,105.9969 27.0031,105.0 27.0031,104.0 27.0,103.9969 26.0031,103.0 26.0031,102.0 27.0,101.0031 27.0031,101.0 27.0031,100.0 27.0031,99.0 27.0031,98.0 28.0,97.0031 28.0031,97.0 28.0031,96.0 28.0031,95.0 28.0,94.9969 27.0031,94.0 27.0031,93.0 27.0031,92.0 27.0031,91.0 27.0031,90.0 27.0031,89.0 27.0031,88.0 28.0,87.0031 28.0031,87.0 29.0,86.0031 29.0031,86.0 29.0,85.9969 28.0031,85.0 28.0031,84.0 28.0031,83.0 28.0031,82.0 28.0031,81.0 28.0031,80.0 28.0031,79.0 29.0,78.0031 29.0031,78.0 29.0031,77.0 30.0,76.0031 30.0031,76.0 31.0,75.0031 31.0031,75.0 31.0,74.9969 30.0031,74.0 30.0031,73.0 30.0,72.9969 29.0031,72.0 29.0031,71.0 29.0031,70.0 29.0031,69.0 29.0031,68.0 29.0031,67.0 30.0,66.0031 30.0031,66.0 30.0031,65.0 31.0,64.0031 31.0031,64.0 32.0,63.0031 32.0031,63.0 33.0,62.0031 33.0031,62.0 33.0,61.9969 32.0031,61.0 32.0031,60.0 32.0031,59.0 32.0031,58.0 32.0031,57.0 32.0031,56.0 32.0031,55.0 32.0031,54.0 32.0031,53.0 33.0,52.0031 33.0031,52.0 33.0031,51.0 34.0,50.0031 34.0031,50.0 35.0,49.0031 35.0031,49.0 36.0,48.0031 36.0031,48.0 36.0031,47.0 36.0031,46.0 36.0031,45.0 36.0031,44.0 37.0,43.0031 37.0031,43.0 37.0031,42.0 37.0031,41.0 37.0031,40.0 38.0,39.0031 38.0031,39.0 38.0031,38.0 38.0031,37.0 39.0,36.0031 39.0031,36.0 39.0031,35.0 40.0,34.0031 40.0031,34.0 41.0,33.0031 41.0031,33.0 42.0,32.0031 42.0031,32.0 43.0,31.0031 43.0031,31.0 44.0,30.0031 44.0031,30.0 45.0,29.0031 46.0,29.0031 46.9969,30.0 47.0,30.0031 47.9969,31.0 47.9969,32.0 47.9969,33.0 47.9969,34.0 47.9969,35.0 47.9969,36.0 47.9969,37.0 47.9969,38.0 47.9969,39.0 47.9969,40.0 48.0,40.0031 48.9969,41.0 48.9969,42.0 48.9969,43.0 48.9969,44.0 48.9969,45.0 49.0,45.0031 49.9969,46.0 49.9969,47.0 49.9969,48.0 50.0,48.0031 50.9969,49.0 50.9969,50.0 50.9969,51.0 51.0,51.0031 51.9969,52.0 51.9969,53.0 52.0,53.0031 52.9969,54.0 52.9969,55.0 52.9969,56.0 53.0,56.0031 53.9969,57.0 53.9969,58.0 54.0,58.0031 54.9969,59.0 54.9969,60.0 55.0,60.0031 55.9969,61.0 55.9969,62.0 56.0,62.0031 56.9969,63.0 56.9969,64.0 57.0,64.0031 57.9969,65.0 57.9969,66.0 58.0,66.0031 58.9969,67.0 58.9969,68.0 59.0,68.0031 59.9969,69.0 59.9969,70.0 60.0,70.0031 60.9969,71.0 60.9969,72.0 61.0,72.0031 61.9969,73.0 61.9969,74.0 62.0,74.0031 62.9969,75.0 63.0,75.0031 63.9969,76.0 63.9969,77.0 64.0,77.0031 64.9969,78.0 65.0,78.0031 65.9969,79.0 65.9969,80.0 66.0,80.0031 66.9969,81.0 67.0,81.0031 67.9969,82.0 67.9969,83.0 68.0,83.0031 68.9969,84.0 69.0,84.0031 69.9969,85.0 69.9969,86.0 70.0,86.0031 70.9969,87.0 70.9969,88.0 71.0,88.0031 71.9969,89.0 71.9969,90.0 71.9969,91.0 72.0,91.0031 72.9969,92.0 72.9969,93.0 72.9969,94.0 72.9969,95.0 73.0,95.0031 73.9969,96.0 73.9969,97.0 73.9969,98.0 73.9969,99.0 73.0,99.9969 72.9969,100.0 72.9969,101.0 72.9969,102.0 72.0,102.9969 71.9969,103.0 71.9969,104.0 71.9969,105.0 71.0,105.9969 70.9969,106.0 70.9969,107.0 70.0,107.9969 69.9969,108.0 69.9969,109.0 69.0,109.9969 68.9969,110.0 68.9969,111.0 68.9969,112.0 68.0,112.9969 67.9969,113.0 67.9969,114.0 67.9969,115.0 67.9969,116.0 67.9969,117.0 67.9969,118.0 68.0,118.0031 68.9969,119.0 68.9969,120.0 69.0,120.0031 69.9969,121.0 69.9969,122.0 70.0,122.0031 71.0,122.0031 72.0,122.0031 73.0,122.0031 74.0,122.0031 74.0031,122.0 75.0,121.0031 75.0031,121.0 76.0,120.0031 77.0,120.0031 77.0031,120.0 78.0,119.0031 79.0,119.0031 80.0,119.0031 80.9969,120.0 80.9969,121.0 80.9969,122.0 80.9969,123.0 80.9969,124.0 80.9969,125.0 80.9969,126.0 80.9969,127.0 80.9969,128.0 80.9969,129.0 80.9969,130.0 80.9969,131.0 80.9969,132.0 81.0,132.0031 81.9969,133.0 81.9969,134.0 81.9969,135.0 81.9969,136.0 81.9969,137.0 81.9969,138.0 81.9969,139.0 81.9969,140.0 81.9969,141.0 81.9969,142.0 82.0,142.0031 82.9969,143.0 82.9969,144.0 82.9969,145.0 82.9969,146.0 82.9969,147.0 82.9969,148.0 82.9969,149.0 82.9969,150.0 82.9969,151.0 82.9969,152.0 82.9969,153.0 82.9969,154.0 82.9969,155.0 82.0,155.9969" stroke="black" stroke-width="1" /><polyline fill="none" points="125.0,155.9969 124.0,155.9969 123.0,155.9969 122.0,155.9969 121.0,155.9969 120.0,155.9969 119.0,155.9969 118.0,155.9969 117.0,155.9969 116.0,155.9969 115.0,155.9969 114.0,155.9969 113.0,155.9969 112.0,155.9969 111.0,155.9969 110.0,155.9969 109.0,155.9969 108.0,155.9969 107.0,155.9969 106.0,155.9969 105.0,155.9969 104.0,155.9969 103.0,155.9969 102.0,155.9969 101.0,155.9969 100.0,155.9969 99.0031,155.0 99.0031,154.0 99.0031,153.0 99.0031,152.0 99.0031,151.0 100.0,150.0031 100.0031,150.0 100.0031,149.0 100.0031,148.0 100.0031,147.0 100.0031,146.0 100.0031,145.0 100.0031,144.0 100.0031,143.0 101.0,142.0031 101.0031,142.0 101.0031,141.0 101.0031,140.0 101.0031,139.0 101.0031,138.0 101.0031,137.0 101.0031,136.0 101.0031,135.0 101.0031,134.0 101.0031,133.0 101.0031,132.0 101.0031,131.0 101.0031,130.0 101.0031,129.0 101.0031,128.0 101.0031,127.0 102.0,126.0031 102.0031,126.0 102.0031,125.0 102.0031,124.0 102.0031,123.0 102.0031,122.0 102.0031,121.0 102.0031,120.0 103.0,119.0031 104.0,119.0031 105.0,119.0031 105.9969,120.0 106.0,120.0031 106.9969,121.0 107.0,121.0031 108.0,121.0031 108.9969,122.0 109.0,122.0031 110.0,122.0031 111.0,122.0031 112.0,122.0031 112.0031,122.0 113.0,121.0031 113.0031,121.0 114.0,120.0031 114.0031,120.0 114.0031,119.0 114.0031,118.0 115.0,117.0031 115.0031,117.0 115.0031,116.0 115.0031,115.0 115.0031,114.0 115.0,113.9969 114.0031,113.0 114.0031,112.0 114.0031,111.0 114.0,110.9969 113.0031,110.0 113.0031,109.0 113.0,108.9969 112.0031,108.0 112.0031,107.0 112.0,106.9969 111.0031,106.0 111.0031,105.0 111.0031,104.0 111.0,103.9969 110.0031,103.0 110.0031,102.0 110.0,101.9969 109.0031,101.0 110.0,100.0031 110.0031,100.0 110.0,99.9969 109.0031,99.0 109.0031,98.0 109.0031,97.0 109.0031,96.0 109.0031,95.0 109.0031,94.0 110.0,93.0031 110.0031,93.0 110.0031,92.0 110.0031,91.0 111.0,90.0031 111.0031,90.0 111.0031,89.0 112.0,88.0031 112.0031,88.0 112.0031,87.0 113.0,86.0031 113.0031,86.0 113.0031,85.0 114.0,84.0031 114.0031,84.0 114.0031,83.0 115.0,82.0031 115.0031,82.0 116.0,81.0031 116.0031,81.0 116.0031,80.0 117.0,79.0031 117.0031,79.0 118.0,78.0031 118.0031,78.0 118.0031,77.0 119.0,76.0031 119.0031,76.0 119.0031,75.0 120.0,74.0031 120.0031,74.0 121.0,73.0031 121.0031,73.0 121.0031,72.0 122.0,71.0031 122.0031,71.0 122.0031,70.0 123.0,69.0031 123.0031,69.0 124.0,68.0031 124.0031,68.0 124.0031,67.0 124.0031,66.0 125.0,65.0031 125.0031,65.0 126.0,64.0031 126.0031,64.0 126.0031,63.0 126.0031,62.0 127.0,61.0031 127.0031,61.0 128.0,60.0031 128.0031,60.0 128.0031,59.0 128.0031,58.0 129.0,57.0031 129.0031,57.0 129.0031,56.0 130.0,55.0031 130.0031,55.0 130.0031,54.0 130.0031,53.0 131.0,52.0031 131.0031,52.0 131.0031,51.0 131.0031,50.0 132.0,49.0031 132.0031,49.0 132.0031,48.0 133.0,47.0031 133.0031,47.0 133.0031,46.0 133.0031,45.0 133.0031,44.0 134.0,43.0031 134.0031,43.0 134.0031,42.0 134.0031,41.0 135.0,40.0031 135.0031,40.0 135.0031,39.0 135.0031,38.0 135.0031,37.0 135.0031,36.0 135.0031,35.0 135.0031,34.0 135.0031,33.0 135.0031,32.0 135.0031,31.0 135.0031,30.0 136.0,29.0031 137.0,29.0031 137.9969,30.0 138.0,30.0031 139.0,30.0031 139.9969,31.0 140.0,31.0031 140.9969,32.0 141.0,32.0031 141.9969,33.0 142.0,33.0031 142.9969,34.0 142.9969,35.0 143.0,35.0031 143.9969,36.0 143.9969,37.0 144.0,37.0031 144.9969,38.0 144.9969,39.0 144.9969,40.0 145.0,40.0031 145.9969,41.0 145.9969,42.0 145.9969,43.0 145.9969,44.0 145.9969,45.0 145.9969,46.0 145.9969,47.0 146.0,47.0031 146.9969,48.0 147.0,48.0031 147.9969,49.0 148.0,49.0031 148.9969,50.0 148.9969,51.0 149.0,51.0031 149.9969,52.0 149.9969,53.0 149.9969,54.0 150.0,54.0031 150.9969,55.0 150.9969,56.0 150.9969,57.0 150.9969,58.0 150.0,58.9969 149.9969,59.0 149.9969,60.0 149.9969,61.0 149.9969,62.0 150.0,62.0031 150.9969,63.0 151.0,63.0031 151.9969,64.0 151.9969,65.0 152.0,65.0031 152.9969,66.0 152.9969,67.0 152.9969,68.0 152.9969,69.0 152.9969,70.0 153.0,70.0031 153.9969,71.0 153.0,71.9969 152.9969,72.0 152.9969,73.0 152.9969,74.0 152.0,74.9969 151.9969,75.0 151.9969,76.0 152.0,76.0031 152.9969,77.0 153.0,77.0031 153.9969,78.0 153.9969,79.0 154.0,79.0031 154.9969,80.0 154.9969,81.0 154.9969,82.0 154.9969,83.0 154.9969,84.0 154.0,84.9969 153.9969,85.0 153.9969,86.0 153.9969,87.0 154.0,87.0031 154.9969,88.0 154.9969,89.0 155.0,89.0031 155.9969,90.0 155.9969,91.0 155.9969,92.0 155.9969,93.0 155.0,93.9969 154.9969,94.0 154.9969,95.0 154.9969,96.0 154.0,96.9969 153.9969,97.0 154.0,97.0031 154.9969,98.0 155.0,98.0031 155.9969,99.0 155.9969,100.0 155.9969,101.0 156.0,101.0031 156.9969,102.0 156.0,102.9969 155.9969,103.0 155.9969,104.0 155.9969,105.0 155.0,105.9969 154.9969,106.0 154.9969,107.0 154.9969,108.0 155.0,108.0031 155.9969,109.0 155.9969,110.0 155.9969,111.0 155.9969,112.0 155.0,112.9969 154.9969,113.0 154.9969,114.0 154.0,114.9969 153.9969,115.0 153.0,115.9969 152.9969,116.0 152.9969,117.0 153.0,117.0031 153.9969,118.0 153.0,118.9969 152.9969,119.0 152.9969,120.0 152.0,120.9969 151.9969,121.0 151.0,121.9969 150.0,121.9969 149.9969,122.0 149.0,122.9969 148.9969,123.0 148.9969,124.0 148.9969,125.0 148.9969,126.0 148.9969,127.0 148.0,127.9969 147.9969,128.0 147.0,128.9969 146.9969,129.0 146.0,129.9969 145.0,129.9969 144.0,129.9969 143.9969,130.0 143.9969,131.0 143.0,131.9969 142.9969,132.0 142.9969,133.0 142.0,133.9969 141.9969,134.0 141.0,134.9969 140.9969,135.0 140.0,135.9969 139.0,135.9969 138.0,135.9969 137.9969,136.0 137.9969,137.0 137.9969,138.0 137.0,138.9969 136.0,138.9969 135.9969,139.0 135.0,139.9969 134.0,139.9969 133.0,139.9969 132.0,139.9969 131.9969,140.0 131.9969,141.0 131.0,141.9969 130.9969,142.0 130.0,142.9969 129.9969,143.0 129.0,143.9969 128.0,143.9969 127.0,143.9969 126.0,143.9969 125.0,143.9969 124.0031,143.0 124.0,142.9969 123.0031,142.0 123.0,141.9969 122.9969,142.0 123.0,142.0031 123.9969,143.0 123.9969,144.0 123.9969,145.0 124.0,145.0031 124.9969,146.0 124.9969,147.0 124.9969,148.0 124.9969,149.0 124.9969,150.0 125.0,150.0031 125.9969,151.0 125.9969,152.0 125.9969,153.0 125.9969,154.0 125.9969,155.0 125.0,155.9969" stroke="black" stroke-width="1" /><polyline fill="none" points="68.0031,105.0 69.0,104.0031 69.0031,104.0 69.0031,103.0 70.0,102.0031 70.0031,102.0 70.0031,101.0 70.0031,100.0 70.0031,99.0 71.0,98.0031 71.0031,98.0 71.0031,97.0 71.0031,96.0 71.0031,95.0 71.0,94.9969 70.0031,94.0 70.0031,93.0 70.0031,92.0 70.0031,91.0 70.0,90.9969 69.0031,90.0 69.0031,89.0 69.0,88.9969 68.0031,88.0 68.0031,87.0 68.0,86.9969 67.0031,86.0 67.0,85.9969 66.0031,85.0 66.0031,84.0 66.0,83.9969 65.0031,83.0 65.0,82.9969 64.0031,82.0 64.0031,81.0 64.0,80.9969 63.0031,80.0 63.0,79.9969 62.0031,79.0 62.0031,78.0 62.0,77.9969 61.0031,77.0 61.0031,76.0 61.0,75.9969 60.0031,75.0 60.0,74.9969 59.0031,74.0 59.0031,73.0 59.0,72.9969 58.0031,72.0 58.0031,71.0 58.0,70.9969 57.0031,70.0 57.0,69.9969 56.0031,69.0 56.0031,68.0 56.0,67.9969 55.0031,67.0 55.0031,66.0 55.0,65.9969 54.0031,65.0 54.0031,64.0 54.0031,63.0 54.0,62.9969 53.0031,62.0 53.0,61.9969 52.0031,61.0 52.0031,60.0 52.0031,59.0 52.0,58.9969 51.0031,58.0 51.0031,57.0 51.0,56.9969 50.0031,56.0 50.0031,55.0 50.0031,54.0 50.0,53.9969 49.0031,53.0 49.0031,52.0 49.0,51.9969 48.0031,51.0 48.0031,50.0 48.0031,49.0 48.0,48.9969 47.0031,48.0 47.0031,47.0 47.0031,46.0 47.0,45.9969 46.0031,45.0 46.0031,44.0 46.0031,43.0 46.0031,42.0 46.0,41.9969 45.0031,41.0 45.0031,40.0 45.0031,39.0 45.0031,38.0 45.0031,37.0 45.0031,36.0 45.0031,35.0 45.0031,34.0 45.0031,33.0 45.0031,32.0 45.0,31.9969 44.9969,32.0 44.9969,33.0 44.0,33.9969 43.9969,34.0 43.0,34.9969 42.9969,35.0 42.0,35.9969 41.9969,36.0 41.9969,37.0 41.0,37.9969 40.9969,38.0 40.9969,39.0 40.0,39.9969 39.9969,40.0 39.9969,41.0 39.9969,42.0 39.9969,43.0 39.0,43.9969 38.9969,44.0 38.9969,45.0 38.9969,46.0 38.9969,47.0 38.9969,48.0 39.0,48.0031 39.9969,49.0 39.9969,50.0 39.9969,51.0 40.0,51.0031 40.9969,52.0 40.9969,53.0 41.0,53.0031 41.9969,54.0 41.9969,55.0 42.0,55.0031 42.9969,56.0 42.9969,57.0 43.0,57.0031 43.9969,58.0 43.9969,59.0 44.0,59.0031 44.9969,60.0 44.9969,61.0 45.0,61.0031 45.9969,62.0 45.9969,63.0 46.0,63.0031 46.9969,64.0 46.9969,65.0 47.0,65.0031 47.9969,66.0 47.9969,67.0 48.0,67.0031 48.9969,68.0 48.9969,69.0 49.0,69.0031 49.9969,70.0 49.9969,71.0 50.0,71.0031 50.9969,72.0 50.9969,73.0 51.0,73.0031 51.9969,74.0 51.9969,75.0 52.0,75.0031 52.9969,76.0 52.9969,77.0 53.0,77.0031 53.9969,78.0 54.0,78.0031 54.9969,79.0 54.9969,80.0 55.0,80.0031 55.9969,81.0 55.9969,82.0 56.0,82.0031 56.9969,83.0 56.9969,84.0 57.0,84.0031 57.9969,85.0 57.9969,86.0 58.0,86.0031 58.9969,87.0 58.9969,88.0 59.0,88.0031 59.9969,89.0 59.9969,90.0 60.0,90.0031 60.9969,91.0 60.9969,92.0 61.0,92.0031 61.9969,93.0 61.9969,94.0 62.0,94.0031 62.9969,95.0 62.9969,96.0 63.0,96.0031 63.9969,97.0 64.0,97.0031 64.9969,98.0 64.9969,99.0 65.0,99.0031 65.9969,100.0 65.9969,101.0 66.0,101.0031 66.9969,102.0 66.9969,103.0 67.0,103.0031 67.9969,104.0 67.9969,105.0 68.0,105.0031 68.0031,105.0" stroke="black" stroke-width="1" /><polyline fill="none" points="114.0031,105.0 115.0,104.0031 115.0031,104.0 115.0031,103.0 116.0,102.0031 116.0031,102.0 116.0031,101.0 117.0,100.0031 117.0031,100.0 118.0,99.0031 118.0031,99.0 118.0031,98.0 119.0,97.0031 119.0031,97.0 119.0031,96.0 120.0,95.0031 120.0031,95.0 120.0031,94.0 121.0,93.0031 121.0031,93.0 121.0031,92.0 122.0,91.0031 122.0031,91.0 122.0031,90.0 123.0,89.0031 123.0031,89.0 123.0031,88.0 124.0,87.0031 124.0031,87.0 124.0031,86.0 125.0,85.0031 125.0031,85.0 125.0031,84.0 126.0,83.0031 126.0031,83.0 126.0031,82.0 127.0,81.0031 127.0031,81.0 128.0,80.0031 128.0031,80.0 128.0031,79.0 129.0,78.0031 129.0031,78.0 129.0031,77.0 130.0,76.0031 130.0031,76.0 130.0031,75.0 131.0,74.0031 131.0031,74.0 131.0031,73.0 132.0,72.0031 132.0031,72.0 132.0031,71.0 133.0,70.0031 133.0031,70.0 133.0031,69.0 134.0,68.0031 134.0031,68.0 134.0031,67.0 135.0,66.0031 135.0031,66.0 136.0,65.0031 136.0031,65.0 136.0031,64.0 137.0,63.0031 137.0031,63.0 137.0031,62.0 138.0,61.0031 138.0031,61.0 138.0031,60.0 139.0,59.0031 139.0031,59.0 139.0031,58.0 140.0,57.0031 140.0031,57.0 140.0031,56.0 141.0,55.0031 141.0031,55.0 141.0031,54.0 142.0,53.0031 142.0031,53.0 142.0031,52.0 143.0,51.0031 143.0031,51.0 143.0031,50.0 143.0031,49.0 143.0031,48.0 144.0,47.0031 144.0031,47.0 144.0031,46.0 144.0031,45.0 144.0,44.9969 143.0031,44.0 143.0031,43.0 143.0031,42.0 143.0031,41.0 143.0,40.9969 142.0031,40.0 142.0031,39.0 142.0031,38.0 142.0,37.9969 141.0031,37.0 141.0031,36.0 141.0,35.9969 140.0031,35.0 140.0,34.9969 139.0031,34.0 139.0,33.9969 138.0031,33.0 138.0,32.9969 137.0031,32.0 137.0,31.9969 136.9969,32.0 136.9969,33.0 136.9969,34.0 136.9969,35.0 136.9969,36.0 136.9969,37.0 136.9969,38.0 136.9969,39.0 136.9969,40.0 136.9969,41.0 136.9969,42.0 136.9969,43.0 136.9969,44.0 136.0,44.9969 135.9969,45.0 135.9969,46.0 135.0,46.9969 134.9969,47.0 134.9969,48.0 134.9969,49.0 134.9969,50.0 134.0,50.9969 133.9969,51.0 133.9969,52.0 133.9969,53.0 133.0,53.9969 132.9969,54.0 132.9969,55.0 132.0,55.9969 131.9969,56.0 131.9969,57.0 131.0,57.9969 130.9969,58.0 130.9969,59.0 130.9969,60.0 130.0,60.9969 129.9969,61.0 129.9969,62.0 129.0,62.9969 128.9969,63.0 128.9969,64.0 128.0,64.9969 127.9969,65.0 127.9969,66.0 127.0,66.9969 126.9969,67.0 126.9969,68.0 126.0,68.9969 125.9969,69.0 125.9969,70.0 125.0,70.9969 124.9969,71.0 124.0,71.9969 123.9969,72.0 123.9969,73.0 123.0,73.9969 122.9969,74.0 122.9969,75.0 122.0,75.9969 121.9969,76.0 121.9969,77.0 121.0,77.9969 120.9969,78.0 120.0,78.9969 119.9969,79.0 119.9969,80.0 119.0,80.9969 118.9969,81.0 118.0,81.9969 117.9969,82.0 117.9969,83.0 117.0,83.9969 116.9969,84.0 116.0,84.9969 115.9969,85.0 115.9969,86.0 115.0,86.9969 114.9969,87.0 114.0,87.9969 113.9969,88.0 113.9969,89.0 113.9969,90.0 113.0,90.9969 112.9969,91.0 112.9969,92.0 112.0,92.9969 111.9969,93.0 111.9969,94.0 111.9969,95.0 111.9969,96.0 111.9969,97.0 111.9969,98.0 111.9969,99.0 111.9969,100.0 112.0,100.0031 112.9969,101.0 112.9969,102.0 112.9969,103.0 113.0,103.0031 113.9969,104.0 113.9969,105.0 114.0,105.0031 114.0031,105.0" stroke="black" stroke-width="1" /><polyline fill="none" points="67.0031,107.0 67.0,106.9969 66.0031,106.0 66.0,105.9969 65.0031,105.0 65.0031,104.0 65.0,103.9969 64.0031,103.0 64.0031,102.0 64.0,101.9969 63.0031,101.0 63.0031,100.0 63.0,99.9969 62.0031,99.0 62.0031,98.0 62.0,97.9969 61.0031,97.0 61.0,96.9969 60.0031,96.0 60.0031,95.0 60.0,94.9969 59.0031,94.0 59.0031,93.0 59.0,92.9969 58.0031,92.0 58.0031,91.0 58.0,90.9969 57.0031,90.0 57.0031,89.0 57.0,88.9969 56.0031,88.0 56.0031,87.0 56.0,86.9969 55.0031,86.0 55.0,85.9969 54.0031,85.0 54.0031,84.0 54.0031,83.0 54.0,82.9969 53.0031,82.0 53.0,81.9969 52.0031,81.0 52.0031,80.0 52.0031,79.0 52.0,78.9969 51.0031,78.0 51.0,77.9969 50.0031,77.0 50.0031,76.0 50.0,75.9969 49.0031,75.0 49.0031,74.0 49.0,73.9969 48.0031,73.0 48.0031,72.0 48.0,71.9969 47.0031,71.0 47.0031,70.0 47.0,69.9969 46.0031,69.0 46.0031,68.0 46.0,67.9969 45.0031,67.0 45.0031,66.0 45.0,65.9969 44.0031,65.0 44.0031,64.0 44.0,63.9969 43.0031,63.0 43.0,62.9969 42.0031,62.0 42.0031,61.0 42.0,60.9969 41.0031,60.0 41.0031,59.0 41.0,58.9969 40.0031,58.0 40.0031,57.0 40.0,56.9969 39.0031,56.0 39.0031,55.0 39.0,54.9969 38.0031,54.0 38.0031,53.0 38.0,52.9969 37.0031,52.0 37.0031,51.0 37.0031,50.0 37.0,49.9969 36.9969,50.0 36.9969,51.0 36.0,51.9969 35.9969,52.0 35.9969,53.0 35.0,53.9969 34.9969,54.0 34.9969,55.0 34.9969,56.0 34.9969,57.0 34.9969,58.0 34.9969,59.0 34.9969,60.0 35.0,60.0031 35.9969,61.0 35.9969,62.0 35.9969,63.0 36.0,63.0031 36.9969,64.0 36.9969,65.0 37.0,65.0031 37.9969,66.0 37.9969,67.0 38.0,67.0031 38.9969,68.0 39.0,68.0031 39.9969,69.0 39.9969,70.0 40.0,70.0031 40.9969,71.0 41.0,71.0031 41.9969,72.0 42.0,72.0031 42.9969,73.0 43.0,73.0031 43.9969,74.0 43.9969,75.0 44.0,75.0031 44.9969,76.0 45.0,76.0031 45.9969,77.0 46.0,77.0031 46.9969,78.0 46.9969,79.0 47.0,79.0031 47.9969,80.0 47.9969,81.0 48.0,81.0031 48.9969,82.0 49.0,82.0031 49.9969,83.0 50.0,83.0031 50.9969,84.0 50.9969,85.0 51.0,85.0031 51.9969,86.0 52.0,86.0031 52.9969,87.0 52.9969,88.0 53.0,88.0031 53.9969,89.0 54.0,89.0031 54.9969,90.0 55.0,90.0031 55.9969,91.0 55.9969,92.0 56.0,92.0031 56.9969,93.0 57.0,93.0031 57.9969,94.0 57.9969,95.0 58.0,95.0031 58.9969,96.0 59.0,96.0031 59.9969,97.0 60.0,97.0031 60.9969,98.0 60.9969,99.0 61.0,99.0031 61.9969,100.0 61.9969,101.0 62.0,101.0031 62.9969,102.0 63.0,102.0031 63.9969,103.0 64.0,103.0031 64.9969,104.0 64.9969,105.0 65.0,105.0031 65.9969,106.0 66.0,106.0031 66.9969,107.0 67.0,107.0031 67.0031,107.0" stroke="black" stroke-width="1" /><polyline fill="none" points="116.0031,107.0 117.0,106.0031 117.0031,106.0 117.0031,105.0 118.0,104.0031 118.0031,104.0 119.0,103.0031 119.0031,103.0 119.0031,102.0 120.0,101.0031 120.0031,101.0 121.0,100.0031 121.0031,100.0 122.0,99.0031 122.0031,99.0 122.0031,98.0 123.0,97.0031 123.0031,97.0 124.0,96.0031 124.0031,96.0 124.0031,95.0 125.0,94.0031 125.0031,94.0 126.0,93.0031 126.0031,93.0 126.0031,92.0 127.0,91.0031 127.0031,91.0 128.0,90.0031 128.0031,90.0 128.0031,89.0 129.0,88.0031 129.0031,88.0 130.0,87.0031 130.0031,87.0 131.0,86.0031 131.0031,86.0 131.0031,85.0 132.0,84.0031 132.0031,84.0 133.0,83.0031 133.0031,83.0 133.0031,82.0 134.0,81.0031 134.0031,81.0 135.0,80.0031 135.0031,80.0 136.0,79.0031 136.0031,79.0 136.0031,78.0 137.0,77.0031 137.0031,77.0 138.0,76.0031 138.0031,76.0 139.0,75.0031 139.0031,75.0 139.0031,74.0 140.0,73.0031 140.0031,73.0 141.0,72.0031 141.0031,72.0 141.0031,71.0 142.0,70.0031 142.0031,70.0 143.0,69.0031 143.0031,69.0 144.0,68.0031 144.0031,68.0 144.0031,67.0 145.0,66.0031 145.0031,66.0 145.0031,65.0 146.0,64.0031 146.0031,64.0 146.0031,63.0 147.0,62.0031 147.0031,62.0 147.0031,61.0 147.0031,60.0 147.0031,59.0 148.0,58.0031 148.0031,58.0 148.0031,57.0 148.0031,56.0 148.0,55.9969 147.0031,55.0 147.0031,54.0 147.0031,53.0 147.0031,52.0 147.0,51.9969 146.0031,51.0 146.0,50.9969 145.9969,51.0 145.0,51.9969 144.9969,52.0 144.9969,53.0 144.0,53.9969 143.9969,54.0 143.9969,55.0 143.0,55.9969 142.9969,56.0 142.9969,57.0 142.0,57.9969 141.9969,58.0 141.9969,59.0 141.0,59.9969 140.9969,60.0 140.9969,61.0 140.0,61.9969 139.9969,62.0 139.9969,63.0 139.0,63.9969 138.9969,64.0 138.9969,65.0 138.0,65.9969 137.9969,66.0 137.0,66.9969 136.9969,67.0 136.9969,68.0 136.9969,69.0 136.0,69.9969 135.9969,70.0 135.0,70.9969 134.9969,71.0 134.9969,72.0 134.0,72.9969 133.9969,73.0 133.9969,74.0 133.0,74.9969 132.9969,75.0 132.9969,76.0 132.0,76.9969 131.9969,77.0 131.9969,78.0 131.0,78.9969 130.9969,79.0 130.9969,80.0 130.0,80.9969 129.9969,81.0 129.9969,82.0 129.0,82.9969 128.9969,83.0 128.9969,84.0 128.0,84.9969 127.9969,85.0 127.9969,86.0 127.0,86.9969 126.9969,87.0 126.0,87.9969 125.9969,88.0 125.9969,89.0 125.0,89.9969 124.9969,90.0 124.9969,91.0 124.0,91.9969 123.9969,92.0 123.9969,93.0 123.0,93.9969 122.9969,94.0 122.9969,95.0 122.0,95.9969 121.9969,96.0 121.9969,97.0 121.0,97.9969 120.9969,98.0 120.9969,99.0 120.0,99.9969 119.9969,100.0 119.9969,101.0 119.0,101.9969 118.9969,102.0 118.9969,103.0 118.0,103.9969 117.9969,104.0 117.0,104.9969 116.9969,105.0 116.9969,106.0 116.0,106.9969 115.9969,107.0 116.0,107.0031 116.0031,107.0" stroke="black" stroke-width="1" /><polyline fill="none" points="64.0031,107.0 64.0,106.9969 63.0031,106.0 63.0,105.9969 62.0031,105.0 62.0031,104.0 62.0,103.9969 61.0031,103.0 61.0,102.9969 60.0031,102.0 60.0,101.9969 59.0031,101.0 59.0031,100.0 59.0,99.9969 58.0031,99.0 58.0,98.9969 57.0031,98.0 57.0031,97.0 57.0,96.9969 56.0031,96.0 56.0,95.9969 55.0031,95.0 55.0,94.9969 54.0031,94.0 54.0031,93.0 54.0,92.9969 53.0031,92.0 53.0,91.9969 52.0031,91.0 52.0031,90.0 52.0,89.9969 51.0031,89.0 51.0,88.9969 50.0031,88.0 50.0,87.9969 49.0031,87.0 49.0031,86.0 49.0,85.9969 48.0031,85.0 48.0,84.9969 47.0031,84.0 47.0031,83.0 47.0,82.9969 46.0031,82.0 46.0,81.9969 45.0031,81.0 45.0,80.9969 44.0031,80.0 44.0031,79.0 44.0,78.9969 43.0031,78.0 43.0,77.9969 42.0031,77.0 42.0031,76.0 42.0,75.9969 41.0031,75.0 41.0,74.9969 40.0031,74.0 40.0,73.9969 39.0031,73.0 39.0031,72.0 39.0,71.9969 38.0031,71.0 38.0,70.9969 37.0031,70.0 37.0,69.9969 36.0031,69.0 36.0031,68.0 36.0,67.9969 35.0031,67.0 35.0031,66.0 35.0,65.9969 34.0031,65.0 34.0,64.9969 33.0,64.9969 32.9969,65.0 32.9969,66.0 32.0,66.9969 31.9969,67.0 31.9969,68.0 31.9969,69.0 31.9969,70.0 31.9969,71.0 31.9969,72.0 32.0,72.0031 32.9969,73.0 32.9969,74.0 33.0,74.0031 33.9969,75.0 33.9969,76.0 34.0,76.0031 34.9969,77.0 35.0,77.0031 35.9969,78.0 36.0,78.0031 36.9969,79.0 36.9969,80.0 37.0,80.0031 37.9969,81.0 38.0,81.0031 38.9969,82.0 39.0,82.0031 39.9969,83.0 40.0,83.0031 40.9969,84.0 41.0,84.0031 41.9969,85.0 42.0,85.0031 42.9969,86.0 42.9969,87.0 43.0,87.0031 43.9969,88.0 44.0,88.0031 44.9969,89.0 45.0,89.0031 45.9969,90.0 46.0,90.0031 46.9969,91.0 47.0,91.0031 47.9969,92.0 48.0,92.0031 48.9969,93.0 49.0,93.0031 49.9969,94.0 50.0,94.0031 50.9969,95.0 51.0,95.0031 51.9969,96.0 52.0,96.0031 52.9969,97.0 53.0,97.0031 53.9969,98.0 54.0,98.0031 55.0,98.0031 55.9969,99.0 56.0,99.0031 56.9969,100.0 57.0,100.0031 57.9969,101.0 58.0,101.0031 58.9969,102.0 59.0,102.0031 59.9969,103.0 60.0,103.0031 60.9969,104.0 61.0,104.0031 61.9969,105.0 62.0,105.0031 62.9969,106.0 63.0,106.0031 63.9969,107.0 64.0,107.0031 64.0031,107.0" stroke="black" stroke-width="1" /><polyline fill="none" points="119.0031,107.0 120.0,106.0031 120.0031,106.0 121.0,105.0031 121.0031,105.0 122.0,104.0031 122.0031,104.0 123.0,103.0031 123.0031,103.0 124.0,102.0031 124.0031,102.0 125.0,101.0031 125.0031,101.0 126.0,100.0031 126.0031,100.0 127.0,99.0031 127.0031,99.0 128.0,98.0031 128.0031,98.0 129.0,97.0031 129.0031,97.0 130.0,96.0031 130.0031,96.0 131.0,95.0031 131.0031,95.0 132.0,94.0031 132.0031,94.0 133.0,93.0031 133.0031,93.0 134.0,92.0031 134.0031,92.0 135.0,91.0031 135.0031,91.0 136.0,90.0031 136.0031,90.0 137.0,89.0031 137.0031,89.0 138.0,88.0031 138.0031,88.0 139.0,87.0031 139.0031,87.0 140.0,86.0031 140.0031,86.0 141.0,85.0031 141.0031,85.0 142.0,84.0031 142.0031,84.0 143.0,83.0031 143.0031,83.0 144.0,82.0031 144.0031,82.0 145.0,81.0031 145.0031,81.0 145.0031,80.0 146.0,79.0031 146.0031,79.0 147.0,78.0031 147.0031,78.0 148.0,77.0031 148.0031,77.0 148.0031,76.0 149.0,75.0031 149.0031,75.0 149.0031,74.0 150.0,73.0031 150.0031,73.0 150.0031,72.0 151.0,71.0031 151.0031,71.0 151.0031,70.0 151.0031,69.0 151.0031,68.0 151.0,67.9969 150.0031,67.0 150.0031,66.0 150.0,65.9969 149.0031,65.0 149.0,64.9969 148.0,64.9969 147.9969,65.0 147.9969,66.0 147.0,66.9969 146.9969,67.0 146.9969,68.0 146.0,68.9969 145.9969,69.0 145.0,69.9969 144.9969,70.0 144.9969,71.0 144.0,71.9969 143.9969,72.0 143.0,72.9969 142.9969,73.0 142.0,73.9969 141.9969,74.0 141.9969,75.0 141.0,75.9969 140.9969,76.0 140.0,76.9969 139.9969,77.0 139.9969,78.0 139.0,78.9969 138.9969,79.0 138.0,79.9969 137.9969,80.0 137.0,80.9969 136.9969,81.0 136.9969,82.0 136.0,82.9969 135.9969,83.0 135.0,83.9969 134.9969,84.0 134.9969,85.0 134.0,85.9969 133.9969,86.0 133.0,86.9969 132.9969,87.0 132.0,87.9969 131.9969,88.0 131.9969,89.0 131.0,89.9969 130.9969,90.0 130.0,90.9969 129.9969,91.0 129.9969,92.0 129.0,92.9969 128.9969,93.0 128.0,93.9969 127.9969,94.0 127.0,94.9969 126.9969,95.0 126.9969,96.0 126.0,96.9969 125.9969,97.0 125.0,97.9969 124.9969,98.0 124.9969,99.0 124.0,99.9969 123.9969,100.0 123.0,100.9969 122.9969,101.0 122.9969,102.0 122.0,102.9969 121.9969,103.0 121.0,103.9969 120.9969,104.0 120.0,104.9969 119.9969,105.0 119.9969,106.0 119.0,106.9969 118.9969,107.0 119.0,107.0031 119.0031,107.0" stroke="black" stroke-width="1" /><polyline fill="none" points="61.0031,108.0 61.0,107.9969 60.0031,107.0 60.0,106.9969 59.0031,106.0 59.0,105.9969 58.0031,105.0 58.0,104.9969 57.0031,104.0 57.0,103.9969 56.0031,103.0 56.0,102.9969 55.0031,102.0 55.0,101.9969 54.0031,101.0 54.0,100.9969 53.0031,100.0 53.0,99.9969 52.0031,99.0 52.0,98.9969 51.0031,98.0 51.0,97.9969 50.0031,97.0 50.0,96.9969 49.0031,96.0 49.0,95.9969 48.0031,95.0 48.0,94.9969 47.0031,94.0 47.0,93.9969 46.0031,93.0 46.0,92.9969 45.0031,92.0 45.0,91.9969 44.0031,91.0 44.0,90.9969 43.0031,90.0 43.0,89.9969 42.0031,89.0 42.0,88.9969 41.0031,88.0 41.0,87.9969 40.0031,87.0 40.0,86.9969 39.0031,86.0 39.0,85.9969 38.0031,85.0 38.0,84.9969 37.0031,84.0 37.0,83.9969 36.0031,83.0 36.0,82.9969 35.0031,82.0 35.0031,81.0 35.0,80.9969 34.0031,80.0 34.0,79.9969 33.0031,79.0 33.0,78.9969 32.0031,78.0 32.0,77.9969 31.9969,78.0 31.0,78.9969 30.9969,79.0 30.9969,80.0 30.9969,81.0 30.9969,82.0 30.9969,83.0 30.9969,84.0 30.9969,85.0 31.0,85.0031 31.9969,86.0 32.0,86.0031 32.9969,87.0 33.0,87.0031 33.9969,88.0 34.0,88.0031 34.9969,89.0 35.0,89.0031 35.9969,90.0 36.0,90.0031 37.0,90.0031 37.9969,91.0 38.0,91.0031 38.9969,92.0 39.0,92.0031 39.9969,93.0 40.0,93.0031 40.9969,94.0 41.0,94.0031 42.0,94.0031 42.9969,95.0 43.0,95.0031 43.9969,96.0 44.0,96.0031 45.0,96.0031 45.9969,97.0 46.0,97.0031 46.9969,98.0 47.0,98.0031 47.9969,99.0 48.0,99.0031 49.0,99.0031 49.9969,100.0 50.0,100.0031 50.9969,101.0 51.0,101.0031 51.9969,102.0 52.0,102.0031 53.0,102.0031 53.9969,103.0 54.0,103.0031 55.0,103.0031 55.9969,104.0 56.0,104.0031 56.9969,105.0 57.0,105.0031 57.9969,106.0 58.0,106.0031 59.0,106.0031 59.9969,107.0 60.0,107.0031 60.9969,108.0 61.0,108.0031 61.0031,108.0" stroke="black" stroke-width="1" /><polyline fill="none" points="120.0031,109.0 121.0,108.0031 122.0,108.0031 122.0031,108.0 123.0,107.0031 123.0031,107.0 124.0,106.0031 124.0031,106.0 125.0,105.0031 126.0,105.0031 126.0031,105.0 127.0,104.0031 127.0031,104.0 128.0,103.0031 129.0,103.0031 129.0031,103.0 130.0,102.0031 130.0031,102.0 131.0,101.0031 131.0031,101.0 132.0,100.0031 133.0,100.0031 133.0031,100.0 134.0,99.0031 134.0031,99.0 135.0,98.0031 136.0,98.0031 136.0031,98.0 137.0,97.0031 137.0031,97.0 138.0,96.0031 138.0031,96.0 139.0,95.0031 140.0,95.0031 140.0031,95.0 141.0,94.0031 141.0031,94.0 142.0,93.0031 142.0031,93.0 143.0,92.0031 144.0,92.0031 144.0031,92.0 145.0,91.0031 145.0031,91.0 146.0,90.0031 147.0,90.0031 147.0031,90.0 148.0,89.0031 148.0031,89.0 149.0,88.0031 149.0031,88.0 150.0,87.0031 150.0031,87.0 151.0,86.0031 151.0031,86.0 151.0031,85.0 152.0,84.0031 152.0031,84.0 152.0031,83.0 152.0031,82.0 152.0031,81.0 152.0031,80.0 152.0,79.9969 151.0031,79.0 151.0031,78.0 151.0,77.9969 150.0,77.9969 149.9969,78.0 149.9969,79.0 149.0,79.9969 148.9969,80.0 148.0,80.9969 147.9969,81.0 147.0,81.9969 146.9969,82.0 146.0,82.9969 145.9969,83.0 145.0,83.9969 144.9969,84.0 144.0,84.9969 143.9969,85.0 143.0,85.9969 142.9969,86.0 142.9969,87.0 142.0,87.9969 141.9969,88.0 141.0,88.9969 140.9969,89.0 140.0,89.9969 139.9969,90.0 139.0,90.9969 138.9969,91.0 138.0,91.9969 137.9969,92.0 137.0,92.9969 136.9969,93.0 136.0,93.9969 135.9969,94.0 135.0,94.9969 134.9969,95.0 134.0,95.9969 133.9969,96.0 133.0,96.9969 132.9969,97.0 132.0,97.9969 131.9969,98.0 131.0,98.9969 130.9969,99.0 130.0,99.9969 129.9969,100.0 129.0,100.9969 128.9969,101.0 128.0,101.9969 127.0,101.9969 126.9969,102.0 126.0,102.9969 125.9969,103.0 125.0,103.9969 124.9969,104.0 124.0,104.9969 123.9969,105.0 123.0,105.9969 122.9969,106.0 122.0,106.9969 121.9969,107.0 121.0,107.9969 120.9969,108.0 120.0,108.9969 119.9969,109.0 120.0,109.0031 120.0031,109.0" stroke="black" stroke-width="1" /><polyline fill="none" points="123.0031,110.0 124.0,109.0031 125.0,109.0031 125.0031,109.0 126.0,108.0031 127.0,108.0031 128.0,108.0031 128.0031,108.0 129.0,107.0031 130.0,107.0031 130.0031,107.0 131.0,106.0031 132.0,106.0031 132.0031,106.0 133.0,105.0031 134.0,105.0031 134.0031,105.0 135.0,104.0031 136.0,104.0031 136.0031,104.0 137.0,103.0031 138.0,103.0031 138.0031,103.0 139.0,102.0031 140.0,102.0031 140.0031,102.0 141.0,101.0031 142.0,101.0031 142.0031,101.0 143.0,100.0031 144.0,100.0031 144.0031,100.0 145.0,99.0031 146.0,99.0031 146.0031,99.0 147.0,98.0031 148.0,98.0031 148.0031,98.0 149.0,97.0031 149.0031,97.0 150.0,96.0031 150.0031,96.0 151.0,95.0031 152.0,95.0031 152.0031,95.0 152.0031,94.0 153.0,93.0031 153.0031,93.0 153.0031,92.0 153.0031,91.0 153.0031,90.0 153.0031,89.0 153.0,88.9969 152.0031,88.0 152.0,87.9969 151.9969,88.0 151.9969,89.0 151.0,89.9969 150.0,89.9969 149.9969,90.0 149.0,90.9969 148.9969,91.0 148.0,91.9969 147.9969,92.0 147.0,92.9969 146.9969,93.0 146.0,93.9969 145.9969,94.0 145.0,94.9969 144.0,94.9969 143.9969,95.0 143.0,95.9969 142.0,95.9969 141.9969,96.0 141.0,96.9969 140.9969,97.0 140.0,97.9969 139.9969,98.0 139.0,98.9969 138.9969,99.0 138.0,99.9969 137.0,99.9969 136.9969,100.0 136.0,100.9969 135.9969,101.0 135.0,101.9969 134.0,101.9969 133.9969,102.0 133.0,102.9969 132.9969,103.0 132.0,103.9969 131.9969,104.0 131.0,104.9969 130.0,104.9969 129.9969,105.0 129.0,105.9969 128.9969,106.0 128.0,106.9969 127.0,106.9969 126.9969,107.0 126.0,107.9969 125.9969,108.0 125.0,108.9969 124.0,108.9969 123.9969,109.0 123.0,109.9969 122.9969,110.0 123.0,110.0031 123.0031,110.0" stroke="black" stroke-width="1" /><polyline fill="none" points="60.0031,110.0 60.0,109.9969 59.0,109.9969 58.0031,109.0 58.0,108.9969 57.0031,108.0 57.0,107.9969 56.0031,107.0 56.0,106.9969 55.0,106.9969 54.0031,106.0 54.0,105.9969 53.0,105.9969 52.0031,105.0 52.0,104.9969 51.0031,104.0 51.0,103.9969 50.0031,103.0 50.0,102.9969 49.0,102.9969 48.0031,102.0 48.0,101.9969 47.0031,101.0 47.0,100.9969 46.0031,100.0 46.0,99.9969 45.0,99.9969 44.0031,99.0 44.0,98.9969 43.0031,98.0 43.0,97.9969 42.0,97.9969 41.0031,97.0 41.0,96.9969 40.0031,96.0 40.0,95.9969 39.0031,95.0 39.0,94.9969 38.0,94.9969 37.0031,94.0 37.0,93.9969 36.0031,93.0 36.0,92.9969 35.0,92.9969 34.0031,92.0 34.0,91.9969 33.0031,91.0 33.0,90.9969 32.0031,90.0 32.0,89.9969 31.0031,89.0 31.0,88.9969 30.0,88.9969 29.9969,89.0 29.9969,90.0 29.0,90.9969 28.9969,91.0 28.9969,92.0 29.0,92.0031 29.9969,93.0 29.9969,94.0 30.0,94.0031 30.9969,95.0 31.0,95.0031 31.9969,96.0 32.0,96.0031 32.9969,97.0 33.0,97.0031 34.0,97.0031 34.9969,98.0 35.0,98.0031 36.0,98.0031 36.9969,99.0 37.0,99.0031 38.0,99.0031 38.9969,100.0 39.0,100.0031 40.0,100.0031 40.9969,101.0 41.0,101.0031 41.9969,102.0 42.0,102.0031 43.0,102.0031 44.0,102.0031 44.9969,103.0 45.0,103.0031 46.0,103.0031 46.9969,104.0 47.0,104.0031 48.0,104.0031 48.9969,105.0 49.0,105.0031 50.0,105.0031 50.9969,106.0 51.0,106.0031 52.0,106.0031 52.9969,107.0 53.0,107.0031 54.0,107.0031 54.9969,108.0 55.0,108.0031 56.0,108.0031 56.9969,109.0 57.0,109.0031 58.0,109.0031 58.9969,110.0 59.0,110.0031 60.0,110.0031 60.0031,110.0" stroke="black" stroke-width="1" /><polyline fill="none" points="61.0031,113.0 61.0,112.9969 60.0,112.9969 59.0,112.9969 58.0031,112.0 58.0,111.9969 57.0,111.9969 56.0031,111.0 56.0,110.9969 55.0,110.9969 54.0031,110.0 54.0,109.9969 53.0,109.9969 52.0,109.9969 51.0031,109.0 51.0,108.9969 50.0031,108.0 50.0,107.9969 49.0,107.9969 48.0,107.9969 47.0031,107.0 47.0,106.9969 46.0031,106.0 46.0,105.9969 45.0,105.9969 44.0,105.9969 43.0031,105.0 43.0,104.9969 42.0,104.9969 41.0031,104.0 41.0,103.9969 40.0,103.9969 39.0031,103.0 39.0,102.9969 38.0,102.9969 37.0031,102.0 37.0,101.9969 36.0031,101.0 36.0,100.9969 35.0,100.9969 34.0031,100.0 34.0,99.9969 33.0,99.9969 32.0031,99.0 32.0,98.9969 31.0031,98.0 31.0,97.9969 30.9969,98.0 30.0,98.9969 29.9969,99.0 29.9969,100.0 29.0,100.9969 28.9969,101.0 28.9969,102.0 28.9969,103.0 28.9969,104.0 29.0,104.0031 29.9969,105.0 30.0,105.0031 31.0,105.0031 31.9969,106.0 32.0,106.0031 33.0,106.0031 33.9969,107.0 34.0,107.0031 35.0,107.0031 36.0,107.0031 36.9969,108.0 37.0,108.0031 38.0,108.0031 39.0,108.0031 40.0,108.0031 40.9969,109.0 41.0,109.0031 42.0,109.0031 43.0,109.0031 44.0,109.0031 44.9969,110.0 45.0,110.0031 46.0,110.0031 47.0,110.0031 48.0,110.0031 48.9969,111.0 49.0,111.0031 50.0,111.0031 51.0,111.0031 52.0,111.0031 53.0,111.0031 53.9969,112.0 54.0,112.0031 55.0,112.0031 56.0,112.0031 56.9969,113.0 57.0,113.0031 58.0,113.0031 59.0,113.0031 60.0,113.0031 61.0,113.0031 61.0031,113.0" stroke="black" stroke-width="1" /><polyline fill="none" points="125.0031,113.0 126.0,112.0031 127.0,112.0031 128.0,112.0031 129.0,112.0031 129.0031,112.0 130.0,111.0031 131.0,111.0031 132.0,111.0031 133.0,111.0031 134.0,111.0031 134.0031,111.0 135.0,110.0031 136.0,110.0031 137.0,110.0031 137.0031,110.0 138.0,109.0031 138.9969,110.0 139.0,110.0031 139.0031,110.0 140.0,109.0031 141.0,109.0031 142.0,109.0031 142.0031,109.0 143.0,108.0031 144.0,108.0031 145.0,108.0031 146.0,108.0031 146.0031,108.0 147.0,107.0031 148.0,107.0031 148.0031,107.0 149.0,106.0031 150.0,106.0031 151.0,106.0031 151.0031,106.0 152.0,105.0031 152.0031,105.0 153.0,104.0031 153.0031,104.0 153.0031,103.0 153.0031,102.0 153.0031,101.0 153.0031,100.0 153.0,99.9969 152.0031,99.0 152.0031,98.0 152.0,97.9969 151.9969,98.0 151.0,98.9969 150.0,98.9969 149.9969,99.0 149.0,99.9969 148.9969,100.0 148.0,100.9969 147.0,100.9969 146.9969,101.0 146.0,101.9969 145.0,101.9969 144.9969,102.0 144.0,102.9969 143.0,102.9969 142.9969,103.0 142.0,103.9969 141.0,103.9969 140.9969,104.0 140.0,104.9969 139.0,104.9969 138.9969,105.0 138.0,105.9969 137.0,105.9969 136.9969,106.0 136.0,106.9969 135.0,106.9969 134.9969,107.0 134.0,107.9969 133.0,107.9969 132.9969,108.0 132.0,108.9969 131.0,108.9969 130.9969,109.0 130.0,109.9969 129.0,109.9969 128.9969,110.0 128.0,110.9969 127.0,110.9969 126.9969,111.0 126.0,111.9969 125.0,111.9969 124.0,111.9969 123.9969,112.0 123.0,112.9969 122.0,112.9969 121.9969,113.0 122.0,113.0031 123.0,113.0031 124.0,113.0031 125.0,113.0031 125.0031,113.0" stroke="black" stroke-width="1" /><polyline fill="none" points="58.0031,115.0 58.0,114.9969 57.0,114.9969 56.0,114.9969 55.0,114.9969 54.0,114.9969 53.0,114.9969 52.0031,114.0 52.0,113.9969 51.0,113.9969 50.0,113.9969 49.0,113.9969 48.0,113.9969 47.0031,113.0 47.0,112.9969 46.0,112.9969 45.0,112.9969 44.0031,112.0 44.0,111.9969 43.0,111.9969 42.0,111.9969 41.0,111.9969 40.0,111.9969 39.0031,111.0 39.0,110.9969 38.0,110.9969 37.0031,110.0 37.0,109.9969 36.0,109.9969 35.0,109.9969 34.0,109.9969 33.0031,109.0 33.0,108.9969 32.0,108.9969 31.0031,108.0 31.0,107.9969 30.9969,108.0 30.0,108.9969 29.9969,109.0 29.9969,110.0 29.0,110.9969 28.9969,111.0 29.0,111.0031 29.9969,112.0 30.0,112.0031 30.9969,113.0 31.0,113.0031 32.0,113.0031 33.0,113.0031 34.0,113.0031 35.0,113.0031 35.9969,114.0 36.0,114.0031 37.0,114.0031 38.0,114.0031 39.0,114.0031 40.0,114.0031 41.0,114.0031 41.9969,115.0 42.0,115.0031 43.0,115.0031 44.0,115.0031 45.0,115.0031 46.0,115.0031 47.0,115.0031 48.0,115.0031 49.0,115.0031 50.0,115.0031 51.0,115.0031 52.0,115.0031 53.0,115.0031 54.0,115.0031 55.0,115.0031 56.0,115.0031 57.0,115.0031 58.0,115.0031 58.0031,115.0" stroke="black" stroke-width="1" /><polyline fill="none" points="140.0031,115.0 141.0,114.0031 142.0,114.0031 143.0,114.0031 144.0,114.0031 145.0,114.0031 146.0,114.0031 147.0,114.0031 147.0031,114.0 148.0,113.0031 149.0,113.0031 150.0,113.0031 151.0,113.0031 152.0,113.0031 152.0031,113.0 153.0,112.0031 153.0031,112.0 153.0031,111.0 153.0031,110.0 153.0031,109.0 153.0,108.9969 152.0031,108.0 152.0,107.9969 151.9969,108.0 151.0,108.9969 150.0,108.9969 149.9969,109.0 149.0,109.9969 148.0,109.9969 147.0,109.9969 146.0,109.9969 145.9969,110.0 145.0,110.9969 144.0,110.9969 143.0,110.9969 142.9969,111.0 142.0,111.9969 141.0,111.9969 140.0,111.9969 139.0,111.9969 138.9969,112.0 138.0,112.9969 137.0,112.9969 136.0,112.9969 135.9969,113.0 135.0,113.9969 134.0,113.9969 133.0,113.9969 132.0,113.9969 131.0,113.9969 130.0,113.9969 129.9969,114.0 129.0,114.9969 128.0,114.9969 127.0,114.9969 126.0,114.9969 125.0,114.9969 124.9969,115.0 125.0,115.0031 126.0,115.0031 127.0,115.0031 128.0,115.0031 129.0,115.0031 130.0,115.0031 131.0,115.0031 132.0,115.0031 133.0,115.0031 134.0,115.0031 135.0,115.0031 136.0,115.0031 137.0,115.0031 138.0,115.0031 139.0,115.0031 140.0,115.0031 140.0031,115.0" stroke="black" stroke-width="1" /><polyline fill="none" points="64.0031,110.0 64.0,109.9969 63.9969,110.0 64.0,110.0031 64.0031,110.0" stroke="black" stroke-width="1" /><polyline fill="none" points="62.0031,111.0 62.0,110.9969 61.9969,111.0 62.0,111.0031 62.0031,111.0" stroke="black" stroke-width="1" /><polyline fill="none" points="121.0031,111.0 121.0,110.9969 120.9969,111.0 121.0,111.0031 121.0031,111.0" stroke="black" stroke-width="1" /><polyline fill="none" points="63.0031,114.0 63.0,113.9969 62.9969,114.0 63.0,114.0031 63.0031,114.0" stroke="black" stroke-width="1" /><polyline fill="none" points="120.0031,114.0 120.0,113.9969 119.9969,114.0 120.0,114.0031 120.0031,114.0" stroke="black" stroke-width="1" /><polyline fill="none" points="50.0031,120.0 51.0,119.0031 52.0,119.0031 53.0,119.0031 54.0,119.0031 55.0,119.0031 55.0031,119.0 56.0,118.0031 57.0,118.0031 57.9969,119.0 58.0,119.0031 58.0031,119.0 59.0,118.0031 60.0,118.0031 61.0,118.0031 62.0,118.0031 62.0031,118.0 62.0,117.9969 61.0,117.9969 60.0,117.9969 59.0,117.9969 58.0,117.9969 57.0,117.9969 56.0,117.9969 55.0,117.9969 54.0,117.9969 53.0,117.9969 52.0,117.9969 51.0,117.9969 50.0,117.9969 49.0,117.9969 48.0031,117.0 48.0,116.9969 47.0,116.9969 46.0,116.9969 45.0,116.9969 44.0,116.9969 43.0,116.9969 42.0,116.9969 41.0,116.9969 40.0,116.9969 39.0,116.9969 38.0,116.9969 37.0,116.9969 36.0,116.9969 35.0,116.9969 34.0031,116.0 34.0,115.9969 33.0,115.9969 32.0,115.9969 31.9969,116.0 31.9969,117.0 31.9969,118.0 32.0,118.0031 32.9969,119.0 32.9969,120.0 33.0,120.0031 34.0,120.0031 35.0,120.0031 36.0,120.0031 37.0,120.0031 38.0,120.0031 39.0,120.0031 40.0,120.0031 41.0,120.0031 42.0,120.0031 43.0,120.0031 44.0,120.0031 45.0,120.0031 46.0,120.0031 47.0,120.0031 48.0,120.0031 49.0,120.0031 50.0,120.0031 50.0031,120.0" stroke="black" stroke-width="1" /><polyline fill="none" points="149.0031,120.0 150.0,119.0031 150.0031,119.0 151.0,118.0031 151.0031,118.0 151.0031,117.0 151.0031,116.0 151.0,115.9969 150.0,115.9969 149.0,115.9969 148.9969,116.0 148.0,116.9969 147.0,116.9969 146.0,116.9969 145.0,116.9969 144.0,116.9969 143.0,116.9969 142.0,116.9969 141.0,116.9969 140.0,116.9969 139.0,116.9969 138.0,116.9969 137.0,116.9969 136.0,116.9969 135.0,116.9969 134.9969,117.0 134.0,117.9969 133.0,117.9969 132.0,117.9969 131.0,117.9969 130.0,117.9969 129.0,117.9969 128.0,117.9969 127.0,117.9969 126.0,117.9969 125.0,117.9969 124.0,117.9969 123.0,117.9969 122.0,117.9969 121.0,117.9969 120.9969,118.0 121.0,118.0031 122.0,118.0031 123.0,118.0031 124.0,118.0031 124.9969,119.0 125.0,119.0031 125.0031,119.0 126.0,118.0031 127.0,118.0031 127.9969,119.0 128.0,119.0031 129.0,119.0031 130.0,119.0031 131.0,119.0031 132.0,119.0031 132.9969,120.0 133.0,120.0031 134.0,120.0031 135.0,120.0031 136.0,120.0031 137.0,120.0031 138.0,120.0031 139.0,120.0031 140.0,120.0031 141.0,120.0031 142.0,120.0031 143.0,120.0031 144.0,120.0031 145.0,120.0031 146.0,120.0031 147.0,120.0031 148.0,120.0031 149.0,120.0031 149.0031,120.0" stroke="black" stroke-width="1" /><polyline fill="none" points="125.0,162.9969 124.0,162.9969 123.0,162.9969 122.0,162.9969 121.0,162.9969 120.0,162.9969 119.0,162.9969 118.0,162.9969 117.0,162.9969 116.0,162.9969 115.0,162.9969 114.0,162.9969 113.0,162.9969 112.0,162.9969 111.0,162.9969 110.0,162.9969 109.0,162.9969 108.0,162.9969 107.0,162.9969 106.0,162.9969 105.0,162.9969 104.0,162.9969 103.0,162.9969 102.0,162.9969 101.0,162.9969 100.0,162.9969 99.0,162.9969 98.0,162.9969 97.0,162.9969 96.0,162.9969 95.0,162.9969 94.0,162.9969 93.0,162.9969 92.0,162.9969 91.0,162.9969 90.0,162.9969 89.0,162.9969 88.0,162.9969 87.0,162.9969 86.0,162.9969 85.0,162.9969 84.0,162.9969 83.0,162.9969 82.0,162.9969 81.0,162.9969 80.0,162.9969 79.0,162.9969 78.0,162.9969 77.0,162.9969 76.0,162.9969 75.0,162.9969 74.0,162.9969 73.0,162.9969 72.0,162.9969 71.0,162.9969 70.0,162.9969 69.0,162.9969 68.0,162.9969 67.0,162.9969 66.0,162.9969 65.0,162.9969 64.0,162.9969 63.0,162.9969 62.0,162.9969 61.0,162.9969 60.0,162.9969 59.0,162.9969 58.0,162.9969 57.0031,162.0 57.0,161.9969 56.0031,161.0 56.0,160.9969 55.0031,160.0 55.0031,159.0 55.0031,158.0 56.0,157.0031 56.0031,157.0 57.0,156.0031 58.0,156.0031 59.0,156.0031 60.0,156.0031 61.0,156.0031 62.0,156.0031 63.0,156.0031 64.0,156.0031 65.0,156.0031 66.0,156.0031 67.0,156.0031 68.0,156.0031 69.0,156.0031 70.0,156.0031 71.0,156.0031 72.0,156.0031 73.0,156.0031 74.0,156.0031 75.0,156.0031 76.0,156.0031 77.0,156.0031 78.0,156.0031 79.0,156.0031 80.0,156.0031 81.0,156.0031 82.0,156.0031 83.0,156.0031 84.0,156.0031 85.0,156.0031 86.0,156.0031 86.0031,156.0 86.0,155.9969 85.0,155.9969 84.0031,155.0 84.0031,154.0 84.0031,153.0 84.0031,152.0 84.0031,151.0 84.0031,150.0 84.0,149.9969 83.0031,149.0 83.0031,148.0 83.0031,147.0 83.0031,146.0 83.0031,145.0 83.0031,144.0 83.0031,143.0 83.0031,142.0 83.0031,141.0 83.0031,140.0 83.0031,139.0 83.0031,138.0 83.0031,137.0 83.0,136.9969 82.0031,136.0 83.0,135.0031 83.0031,135.0 83.0,134.9969 82.0031,134.0 82.0031,133.0 82.0031,132.0 82.0031,131.0 82.0031,130.0 82.0031,129.0 82.0031,128.0 82.0031,127.0 82.0031,126.0 82.0,125.9969 81.0031,125.0 81.0031,124.0 81.0031,123.0 81.0031,122.0 81.0031,121.0 81.0031,120.0 81.0031,119.0 81.0031,118.0 82.0,117.0031 83.0,117.0031 83.0031,117.0 84.0,116.0031 85.0,116.0031 86.0,116.0031 87.0,116.0031 88.0,116.0031 89.0,116.0031 90.0,116.0031 91.0,116.0031 92.0,116.0031 93.0,116.0031 94.0,116.0031 95.0,116.0031 96.0,116.0031 97.0,116.0031 98.0,116.0031 99.0,116.0031 99.9969,117.0 100.0,117.0031 100.9969,118.0 100.9969,119.0 100.9969,120.0 100.9969,121.0 100.9969,122.0 100.9969,123.0 100.9969,124.0 100.9969,125.0 100.9969,126.0 100.9969,127.0 100.9969,128.0 100.9969,129.0 100.9969,130.0 100.9969,131.0 100.9969,132.0 100.9969,133.0 100.0,133.9969 99.9969,134.0 99.9969,135.0 99.9969,136.0 99.9969,137.0 99.9969,138.0 99.9969,139.0 99.9969,140.0 99.9969,141.0 99.9969,142.0 99.0,142.9969 98.9969,143.0 98.9969,144.0 98.9969,145.0 98.9969,146.0 98.9969,147.0 98.9969,148.0 98.9969,149.0 98.9969,150.0 98.9969,151.0 98.9969,152.0 98.9969,153.0 98.9969,154.0 98.0,154.9969 97.9969,155.0 97.0,155.9969 96.9969,156.0 97.0,156.0031 98.0,156.0031 99.0,156.0031 100.0,156.0031 101.0,156.0031 102.0,156.0031 103.0,156.0031 104.0,156.0031 105.0,156.0031 106.0,156.0031 107.0,156.0031 108.0,156.0031 109.0,156.0031 110.0,156.0031 111.0,156.0031 112.0,156.0031 113.0,156.0031 114.0,156.0031 115.0,156.0031 116.0,156.0031 117.0,156.0031 118.0,156.0031 119.0,156.0031 120.0,156.0031 121.0,156.0031 122.0,156.0031 123.0,156.0031 124.0,156.0031 125.0,156.0031 126.0,156.0031 126.9969,157.0 127.0,157.0031 127.9969,158.0 127.9969,159.0 127.9969,160.0 127.0,160.9969 126.9969,161.0 126.0,161.9969 125.9969,162.0 125.0,162.9969" stroke="black" stroke-width="1" /><polyline fill="none" points="42.0031,128.0 43.0,127.0031 44.0,127.0031 45.0,127.0031 45.0031,127.0 46.0,126.0031 47.0,126.0031 48.0,126.0031 49.0,126.0031 49.0031,126.0 50.0,125.0031 51.0,125.0031 51.0031,125.0 52.0,124.0031 53.0,124.0031 54.0,124.0031 54.0031,124.0 55.0,123.0031 56.0,123.0031 57.0,123.0031 57.0031,123.0 58.0,122.0031 59.0,122.0031 59.0031,122.0 60.0,121.0031 61.0,121.0031 62.0,121.0031 62.0031,121.0 63.0,120.0031 64.0,120.0031 64.0031,120.0 64.0,119.9969 63.0,119.9969 62.9969,120.0 62.0,120.9969 61.0,120.9969 60.0,120.9969 59.0,120.9969 58.0,120.9969 57.0,120.9969 56.0,120.9969 55.9969,121.0 55.0,121.9969 54.0,121.9969 53.0,121.9969 52.0,121.9969 51.9969,122.0 51.0,122.9969 50.0,122.9969 49.0,122.9969 48.0,122.9969 47.0,122.9969 46.0,122.9969 45.0,122.9969 44.0,122.9969 43.0,122.9969 42.0,122.9969 41.0,122.9969 40.0,122.9969 39.0,122.9969 38.9969,123.0 38.0,123.9969 37.0031,123.0 37.0,122.9969 36.9969,123.0 36.9969,124.0 36.0,124.9969 35.9969,125.0 36.0,125.0031 36.9969,126.0 36.9969,127.0 37.0,127.0031 38.0,127.0031 38.9969,128.0 39.0,128.0031 40.0,128.0031 40.0031,128.0 41.0,127.0031 41.9969,128.0 42.0,128.0031 42.0031,128.0" stroke="black" stroke-width="1" /><polyline fill="none" points="144.0031,128.0 145.0,127.0031 145.0031,127.0 146.0,126.0031 146.0031,126.0 146.0031,125.0 146.0031,124.0 146.0031,123.0 146.0,122.9969 145.9969,123.0 145.0,123.9969 144.0031,123.0 144.0,122.9969 143.0,122.9969 142.0,122.9969 141.0,122.9969 140.0,122.9969 139.0,122.9969 138.0,122.9969 137.0,122.9969 136.0,122.9969 135.0,122.9969 134.0,122.9969 133.0,122.9969 132.0,122.9969 131.0031,122.0 131.0,121.9969 130.0,121.9969 129.0,121.9969 128.0,121.9969 127.0,121.9969 126.0031,121.0 126.0,120.9969 125.0,120.9969 124.0,120.9969 123.0,120.9969 122.0,120.9969 121.0,120.9969 120.0031,120.0 120.0,119.9969 119.0,119.9969 118.9969,120.0 119.0,120.0031 120.0,120.0031 120.9969,121.0 121.0,121.0031 122.0,121.0031 122.9969,122.0 123.0,122.0031 124.0,122.0031 125.0,122.0031 125.9969,123.0 126.0,123.0031 127.0,123.0031 127.9969,124.0 128.0,124.0031 129.0,124.0031 130.0,124.0031 130.9969,125.0 131.0,125.0031 132.0,125.0031 133.0,125.0031 133.9969,126.0 134.0,126.0031 135.0,126.0031 136.0,126.0031 136.9969,127.0 137.0,127.0031 138.0,127.0031 139.0,127.0031 139.9969,128.0 140.0,128.0031 141.0,128.0031 142.0,128.0031 143.0,128.0031 144.0,128.0031 144.0031,128.0" stroke="black" stroke-width="1" /><polyline fill="none" points="140.0031,133.0 140.0031,132.0 140.0031,131.0 140.0031,130.0 140.0,129.9969 139.0,129.9969 138.0,129.9969 137.0,129.9969 136.0031,129.0 136.0,128.9969 135.0,128.9969 134.0,128.9969 133.0031,128.0 133.0,127.9969 132.0,127.9969 131.0,127.9969 130.0031,127.0 130.0,126.9969 129.0,126.9969 128.0,126.9969 127.0031,126.0 127.0,125.9969 126.0,125.9969 125.0,125.9969 124.0031,125.0 124.0,124.9969 123.0,124.9969 122.0031,124.0 122.0,123.9969 121.0,123.9969 120.0031,123.0 120.0,122.9969 119.0,122.9969 118.0031,122.0 118.0,121.9969 117.0,121.9969 116.0031,121.0 116.0,120.9969 115.9969,121.0 116.0,121.0031 116.9969,122.0 117.0,122.0031 117.9969,123.0 118.0,123.0031 119.0,123.0031 119.9969,124.0 120.0,124.0031 121.0,124.0031 121.9969,125.0 122.0,125.0031 122.9969,126.0 123.0,126.0031 124.0,126.0031 124.9969,127.0 125.0,127.0031 125.9969,128.0 126.0,128.0031 127.0,128.0031 127.9969,129.0 128.0,129.0031 129.0,129.0031 129.9969,130.0 130.0,130.0031 131.0,130.0031 131.9969,131.0 132.0,131.0031 133.0,131.0031 133.9969,132.0 134.0,132.0031 135.0,132.0031 135.9969,133.0 136.0,133.0031 137.0,133.0031 138.0,133.0031 139.0,133.0031 140.0,133.0031 140.0031,133.0" stroke="black" stroke-width="1" /><polyline fill="none" points="47.0031,133.0 48.0,132.0031 49.0,132.0031 49.0031,132.0 50.0,131.0031 51.0,131.0031 51.0031,131.0 52.0,130.0031 53.0,130.0031 53.0031,130.0 54.0,129.0031 54.0031,129.0 55.0,128.0031 56.0,128.0031 57.0,128.0031 57.0031,128.0 58.0,127.0031 58.0031,127.0 59.0,126.0031 60.0,126.0031 60.0031,126.0 61.0,125.0031 61.0031,125.0 62.0,124.0031 63.0,124.0031 63.0031,124.0 64.0,123.0031 64.0031,123.0 65.0,122.0031 66.0,122.0031 66.0031,122.0 66.0,121.9969 65.0,121.9969 64.9969,122.0 64.0,122.9969 63.0,122.9969 62.9969,123.0 62.0,123.9969 61.0,123.9969 60.0,123.9969 59.9969,124.0 59.0,124.9969 58.0,124.9969 57.9969,125.0 57.0,125.9969 56.0,125.9969 55.0,125.9969 54.9969,126.0 54.0,126.9969 53.0,126.9969 52.9969,127.0 52.0,127.9969 51.0,127.9969 50.0,127.9969 49.0,127.9969 48.9969,128.0 48.0,128.9969 47.0,128.9969 46.9969,129.0 46.0,129.9969 45.0,129.9969 44.0,129.9969 43.0,129.9969 42.0,129.9969 41.9969,130.0 41.9969,131.0 41.9969,132.0 42.0,132.0031 42.9969,133.0 43.0,133.0031 44.0,133.0031 45.0,133.0031 46.0,133.0031 47.0,133.0031 47.0031,133.0" stroke="black" stroke-width="1" /><polyline fill="none" points="52.0031,137.0 53.0,136.0031 53.0031,136.0 54.0,135.0031 55.0,135.0031 55.0031,135.0 56.0,134.0031 56.0031,134.0 57.0,133.0031 58.0,133.0031 58.0031,133.0 59.0,132.0031 59.0031,132.0 60.0,131.0031 60.0031,131.0 61.0,130.0031 61.0031,130.0 62.0,129.0031 62.0031,129.0 63.0,128.0031 63.0031,128.0 64.0,127.0031 64.0031,127.0 65.0,126.0031 65.0031,126.0 66.0,125.0031 66.0031,125.0 67.0,124.0031 67.0031,124.0 67.0,123.9969 66.9969,124.0 66.0,124.9969 65.9969,125.0 65.0,125.9969 64.0,125.9969 63.9969,126.0 63.0,126.9969 62.9969,127.0 62.0,127.9969 61.0,127.9969 60.9969,128.0 60.0,128.9969 59.0,128.9969 58.9969,129.0 58.0,129.9969 57.9969,130.0 57.0,130.9969 56.0,130.9969 55.9969,131.0 55.0,131.9969 54.0,131.9969 53.9969,132.0 53.0,132.9969 52.0,132.9969 51.9969,133.0 51.0,133.9969 50.0,133.9969 49.9969,134.0 49.0,134.9969 48.0,134.9969 47.9969,135.0 47.0,135.9969 46.9969,136.0 47.0,136.0031 47.9969,137.0 48.0,137.0031 49.0,137.0031 50.0,137.0031 51.0,137.0031 52.0,137.0031 52.0031,137.0" stroke="black" stroke-width="1" /><polyline fill="none" points="135.0031,137.0 135.0031,136.0 135.0031,135.0 135.0,134.9969 134.0,134.9969 133.0,134.9969 132.0031,134.0 132.0,133.9969 131.0,133.9969 130.0031,133.0 130.0,132.9969 129.0,132.9969 128.0031,132.0 128.0,131.9969 127.0031,131.0 127.0,130.9969 126.0,130.9969 125.0031,130.0 125.0,129.9969 124.0,129.9969 123.0031,129.0 123.0,128.9969 122.0031,128.0 122.0,127.9969 121.0,127.9969 120.0031,127.0 120.0,126.9969 119.0,126.9969 118.0031,126.0 118.0,125.9969 117.0031,125.0 117.0,124.9969 116.0031,124.0 116.0,123.9969 115.9969,124.0 115.9969,125.0 116.0,125.0031 116.9969,126.0 117.0,126.0031 117.9969,127.0 118.0,127.0031 119.0,127.0031 119.9969,128.0 120.0,128.0031 120.9969,129.0 121.0,129.0031 121.9969,130.0 122.0,130.0031 122.9969,131.0 123.0,131.0031 123.9969,132.0 124.0,132.0031 124.9969,133.0 125.0,133.0031 126.0,133.0031 126.9969,134.0 127.0,134.0031 127.9969,135.0 128.0,135.0031 128.9969,136.0 129.0,136.0031 130.0,136.0031 130.9969,137.0 131.0,137.0031 132.0,137.0031 133.0,137.0031 134.0,137.0031 135.0,137.0031 135.0031,137.0" stroke="black" stroke-width="1" /><polyline fill="none" points="128.0031,141.0 129.0,140.0031 129.0031,140.0 130.0,139.0031 130.0031,139.0 130.0,138.9969 129.0,138.9969 128.0031,138.0 128.0,137.9969 127.0,137.9969 126.0031,137.0 126.0,136.9969 125.0031,136.0 125.0,135.9969 124.0031,135.0 124.0,134.9969 123.0031,134.0 123.0,133.9969 122.0031,133.0 122.0,132.9969 121.0,132.9969 120.0031,132.0 120.0,131.9969 119.0031,131.0 119.0,130.9969 118.0031,130.0 118.0,129.9969 117.0031,129.0 117.0,128.9969 116.0031,128.0 116.0,127.9969 115.0031,127.0 115.0,126.9969 114.0031,126.0 114.0,125.9969 113.0031,125.0 113.0,124.9969 112.9969,125.0 113.0,125.0031 113.9969,126.0 114.0,126.0031 114.9969,127.0 115.0,127.0031 115.9969,128.0 116.0,128.0031 116.9969,129.0 116.9969,130.0 117.0,130.0031 117.9969,131.0 118.0,131.0031 118.9969,132.0 118.9969,133.0 119.0,133.0031 119.9969,134.0 120.0,134.0031 120.9969,135.0 120.9969,136.0 121.0,136.0031 121.9969,137.0 121.9969,138.0 122.0,138.0031 122.9969,139.0 123.0,139.0031 123.9969,140.0 124.0,140.0031 124.9969,141.0 125.0,141.0031 126.0,141.0031 127.0,141.0031 128.0,141.0031 128.0031,141.0" stroke="black" stroke-width="1" /><polyline fill="none" points="57.0031,141.0 58.0,140.0031 58.0031,140.0 59.0,139.0031 59.0031,139.0 60.0,138.0031 60.0031,138.0 61.0,137.0031 61.0031,137.0 62.0,136.0031 62.0031,136.0 62.0031,135.0 63.0,134.0031 63.0031,134.0 63.0031,133.0 64.0,132.0031 64.0031,132.0 65.0,131.0031 65.0031,131.0 65.0031,130.0 66.0,129.0031 66.0031,129.0 67.0,128.0031 67.0031,128.0 68.0,127.0031 68.0031,127.0 69.0,126.0031 69.0031,126.0 69.0,125.9969 68.9969,126.0 68.0,126.9969 67.9969,127.0 67.0,127.9969 66.9969,128.0 66.0,128.9969 65.9969,129.0 65.0,129.9969 64.9969,130.0 64.0,130.9969 63.9969,131.0 63.0,131.9969 62.0,131.9969 61.9969,132.0 61.0,132.9969 60.9969,133.0 60.0,133.9969 59.9969,134.0 59.0,134.9969 58.9969,135.0 58.0,135.9969 57.0,135.9969 56.9969,136.0 56.0,136.9969 55.9969,137.0 55.0,137.9969 54.9969,138.0 54.0,138.9969 53.0,138.9969 52.9969,139.0 53.0,139.0031 53.9969,140.0 54.0,140.0031 54.9969,141.0 55.0,141.0031 56.0,141.0031 57.0,141.0031 57.0031,141.0" stroke="black" stroke-width="1" /></svg>